<?xml version="1.0" encoding="UTF-8" standalone="no"?>
<!DOCTYPE svg PUBLIC "-//W3C//DTD SVG 1.1//EN"
 "http://www.w3.org/Graphics/SVG/1.1/DTD/svg11.dtd">
<!-- Generated by graphviz version 2.38.0 (20140413.2041)
 -->
<!-- Title: kinematic&#45;planner.hh Pages: 1 -->
<svg width="1673pt" height="95pt"
 viewBox="0.00 0.00 1672.50 95.00" xmlns="http://www.w3.org/2000/svg" xmlns:xlink="http://www.w3.org/1999/xlink">
<g id="graph0" class="graph" transform="scale(1 1) rotate(0) translate(4 91)">
<title>kinematic&#45;planner.hh</title>
<polygon fill="white" stroke="none" points="-4,4 -4,-91 1668.5,-91 1668.5,4 -4,4"/>
<!-- Node1 -->
<g id="node1" class="node"><title>Node1</title>
<polygon fill="#bfbfbf" stroke="black" points="650,-67.5 650,-86.5 757,-86.5 757,-67.5 650,-67.5"/>
<text text-anchor="middle" x="703.5" y="-74.5" font-family="Helvetica,sans-Serif" font-size="10.00">kinematic&#45;planner.hh</text>
</g>
<!-- Node2 -->
<g id="node2" class="node"><title>Node2</title>
<polygon fill="white" stroke="#bfbfbf" points="0,-6 0,-25 41,-25 41,-6 0,-6"/>
<text text-anchor="middle" x="20.5" y="-13" font-family="Helvetica,sans-Serif" font-size="10.00">string</text>
</g>
<!-- Node1&#45;&gt;Node2 -->
<g id="edge1" class="edge"><title>Node1&#45;&gt;Node2</title>
<path fill="none" stroke="midnightblue" d="M649.975,-74.924C514.948,-71.7919 163.215,-60.926 50.5,-31 48.5711,-30.4879 46.6172,-29.8504 44.6801,-29.1307"/>
<polygon fill="midnightblue" stroke="midnightblue" points="45.8932,-25.8413 35.3282,-25.0465 43.0916,-32.2563 45.8932,-25.8413"/>
</g>
<!-- Node3 -->
<g id="node3" class="node"><title>Node3</title>
<polygon fill="white" stroke="#bfbfbf" points="59.5,-6 59.5,-25 111.5,-25 111.5,-6 59.5,-6"/>
<text text-anchor="middle" x="85.5" y="-13" font-family="Helvetica,sans-Serif" font-size="10.00">sstream</text>
</g>
<!-- Node1&#45;&gt;Node3 -->
<g id="edge2" class="edge"><title>Node1&#45;&gt;Node3</title>
<path fill="none" stroke="midnightblue" d="M649.933,-74.0233C525.555,-69.0853 220.216,-54.8635 120.5,-31 117.981,-30.3972 115.409,-29.6369 112.86,-28.7817"/>
<polygon fill="midnightblue" stroke="midnightblue" points="113.893,-25.4299 103.302,-25.1458 111.404,-31.9726 113.893,-25.4299"/>
</g>
<!-- Node4 -->
<g id="node4" class="node"><title>Node4</title>
<polygon fill="white" stroke="#bfbfbf" points="130,-6 130,-25 159,-25 159,-6 130,-6"/>
<text text-anchor="middle" x="144.5" y="-13" font-family="Helvetica,sans-Serif" font-size="10.00">list</text>
</g>
<!-- Node1&#45;&gt;Node4 -->
<g id="edge3" class="edge"><title>Node1&#45;&gt;Node4</title>
<path fill="none" stroke="midnightblue" d="M649.606,-74.714C532.004,-71.3847 255.829,-60.5782 167.5,-31 166.599,-30.6984 165.698,-30.3545 164.802,-29.977"/>
<polygon fill="midnightblue" stroke="midnightblue" points="166.115,-26.7081 155.654,-25.0302 162.785,-32.8655 166.115,-26.7081"/>
</g>
<!-- Node5 -->
<g id="node5" class="node"><title>Node5</title>
<polygon fill="white" stroke="#bfbfbf" points="177,-6 177,-25 230,-25 230,-6 177,-6"/>
<text text-anchor="middle" x="203.5" y="-13" font-family="Helvetica,sans-Serif" font-size="10.00">complex</text>
</g>
<!-- Node1&#45;&gt;Node5 -->
<g id="edge4" class="edge"><title>Node1&#45;&gt;Node5</title>
<path fill="none" stroke="midnightblue" d="M649.985,-75.9265C562.57,-74.677 384.277,-67.3882 238.5,-31 235.987,-30.3728 233.42,-29.5955 230.873,-28.7291"/>
<polygon fill="midnightblue" stroke="midnightblue" points="231.91,-25.3784 221.319,-25.0753 229.409,-31.9166 231.91,-25.3784"/>
</g>
<!-- Node6 -->
<g id="node6" class="node"><title>Node6</title>
<polygon fill="white" stroke="#bfbfbf" points="247.5,-6 247.5,-25 363.5,-25 363.5,-6 247.5,-6"/>
<text text-anchor="middle" x="305.5" y="-13" font-family="Helvetica,sans-Serif" font-size="10.00">dynamic&#45;graph/entity.h</text>
</g>
<!-- Node1&#45;&gt;Node6 -->
<g id="edge5" class="edge"><title>Node1&#45;&gt;Node6</title>
<path fill="none" stroke="midnightblue" d="M649.986,-70.0268C584.374,-62.4038 469.884,-48.1307 372.5,-31 366.116,-29.8769 359.415,-28.5753 352.821,-27.222"/>
<polygon fill="midnightblue" stroke="midnightblue" points="353.116,-23.7074 342.61,-25.0711 351.673,-30.5571 353.116,-23.7074"/>
</g>
<!-- Node7 -->
<g id="node7" class="node"><title>Node7</title>
<polygon fill="white" stroke="#bfbfbf" points="381.5,-6 381.5,-25 503.5,-25 503.5,-6 381.5,-6"/>
<text text-anchor="middle" x="442.5" y="-13" font-family="Helvetica,sans-Serif" font-size="10.00">dynamic&#45;graph/factory.h</text>
</g>
<!-- Node1&#45;&gt;Node7 -->
<g id="edge6" class="edge"><title>Node1&#45;&gt;Node7</title>
<path fill="none" stroke="midnightblue" d="M666.105,-67.4751C619.687,-56.8932 540.476,-38.8356 489.86,-27.2966"/>
<polygon fill="midnightblue" stroke="midnightblue" points="490.353,-23.8194 479.826,-25.0091 488.797,-30.6443 490.353,-23.8194"/>
</g>
<!-- Node8 -->
<g id="node8" class="node"><title>Node8</title>
<polygon fill="white" stroke="#bfbfbf" points="522,-0.5 522,-30.5 631,-30.5 631,-0.5 522,-0.5"/>
<text text-anchor="start" x="530" y="-18.5" font-family="Helvetica,sans-Serif" font-size="10.00">dynamic&#45;graph/signal</text>
<text text-anchor="middle" x="576.5" y="-7.5" font-family="Helvetica,sans-Serif" font-size="10.00">&#45;base.h</text>
</g>
<!-- Node1&#45;&gt;Node8 -->
<g id="edge7" class="edge"><title>Node1&#45;&gt;Node8</title>
<path fill="none" stroke="midnightblue" d="M685.304,-67.4751C667.219,-59.0024 638.906,-45.7373 615.695,-34.8628"/>
<polygon fill="midnightblue" stroke="midnightblue" points="616.972,-31.5961 606.431,-30.523 614.002,-37.9349 616.972,-31.5961"/>
</g>
<!-- Node9 -->
<g id="node9" class="node"><title>Node9</title>
<polygon fill="white" stroke="#bfbfbf" points="649,-0.5 649,-30.5 758,-30.5 758,-0.5 649,-0.5"/>
<text text-anchor="start" x="657" y="-18.5" font-family="Helvetica,sans-Serif" font-size="10.00">dynamic&#45;graph/signal</text>
<text text-anchor="middle" x="703.5" y="-7.5" font-family="Helvetica,sans-Serif" font-size="10.00">&#45;ptr.h</text>
</g>
<!-- Node1&#45;&gt;Node9 -->
<g id="edge8" class="edge"><title>Node1&#45;&gt;Node9</title>
<path fill="none" stroke="midnightblue" d="M703.5,-67.4751C703.5,-60.471 703.5,-50.1919 703.5,-40.6956"/>
<polygon fill="midnightblue" stroke="midnightblue" points="707,-40.5229 703.5,-30.523 700,-40.523 707,-40.5229"/>
</g>
<!-- Node10 -->
<g id="node10" class="node"><title>Node10</title>
<polygon fill="white" stroke="#bfbfbf" points="776,-0.5 776,-30.5 885,-30.5 885,-0.5 776,-0.5"/>
<text text-anchor="start" x="784" y="-18.5" font-family="Helvetica,sans-Serif" font-size="10.00">dynamic&#45;graph/signal</text>
<text text-anchor="middle" x="830.5" y="-7.5" font-family="Helvetica,sans-Serif" font-size="10.00">&#45;time&#45;dependent.h</text>
</g>
<!-- Node1&#45;&gt;Node10 -->
<g id="edge9" class="edge"><title>Node1&#45;&gt;Node10</title>
<path fill="none" stroke="midnightblue" d="M721.696,-67.4751C739.781,-59.0024 768.094,-45.7373 791.305,-34.8628"/>
<polygon fill="midnightblue" stroke="midnightblue" points="792.998,-37.9349 800.569,-30.523 790.028,-31.5961 792.998,-37.9349"/>
</g>
<!-- Node11 -->
<g id="node11" class="node"><title>Node11</title>
<polygon fill="white" stroke="#bfbfbf" points="903,-0.5 903,-30.5 1010,-30.5 1010,-0.5 903,-0.5"/>
<text text-anchor="start" x="911" y="-18.5" font-family="Helvetica,sans-Serif" font-size="10.00">dynamic&#45;graph/linear</text>
<text text-anchor="middle" x="956.5" y="-7.5" font-family="Helvetica,sans-Serif" font-size="10.00">&#45;algebra.h</text>
</g>
<!-- Node1&#45;&gt;Node11 -->
<g id="edge10" class="edge"><title>Node1&#45;&gt;Node11</title>
<path fill="none" stroke="midnightblue" d="M739.749,-67.4751C779.631,-58.0957 844.487,-42.8431 892.879,-31.4623"/>
<polygon fill="midnightblue" stroke="midnightblue" points="893.699,-34.8649 902.632,-29.1685 892.097,-28.0508 893.699,-34.8649"/>
</g>
<!-- Node12 -->
<g id="node12" class="node"><title>Node12</title>
<polygon fill="white" stroke="#bfbfbf" points="1028,-6 1028,-25 1123,-25 1123,-6 1028,-6"/>
<text text-anchor="middle" x="1075.5" y="-13" font-family="Helvetica,sans-Serif" font-size="10.00">sot/core/debug.hh</text>
</g>
<!-- Node1&#45;&gt;Node12 -->
<g id="edge11" class="edge"><title>Node1&#45;&gt;Node12</title>
<path fill="none" stroke="midnightblue" d="M757.206,-70.2085C820.329,-62.9736 928.076,-49.2861 1019.5,-31 1024.6,-29.9798 1029.93,-28.7788 1035.19,-27.5119"/>
<polygon fill="midnightblue" stroke="midnightblue" points="1036.27,-30.8477 1045.13,-25.0248 1034.58,-24.057 1036.27,-30.8477"/>
</g>
<!-- Node13 -->
<g id="node13" class="node"><title>Node13</title>
<polygon fill="white" stroke="#bfbfbf" points="1141.5,-6 1141.5,-25 1229.5,-25 1229.5,-6 1141.5,-6"/>
<text text-anchor="middle" x="1185.5" y="-13" font-family="Helvetica,sans-Serif" font-size="10.00">Eigen/StdVector</text>
</g>
<!-- Node1&#45;&gt;Node13 -->
<g id="edge12" class="edge"><title>Node1&#45;&gt;Node13</title>
<path fill="none" stroke="midnightblue" d="M757.073,-73.1842C838.67,-68.2659 998.734,-56.1412 1132.5,-31 1137.53,-30.0551 1142.77,-28.8698 1147.93,-27.5863"/>
<polygon fill="midnightblue" stroke="midnightblue" points="1148.86,-30.9605 1157.64,-25.0344 1147.08,-24.1902 1148.86,-30.9605"/>
</g>
<!-- Node14 -->
<g id="node14" class="node"><title>Node14</title>
<polygon fill="white" stroke="#bfbfbf" points="1248,-6 1248,-25 1367,-25 1367,-6 1248,-6"/>
<text text-anchor="middle" x="1307.5" y="-13" font-family="Helvetica,sans-Serif" font-size="10.00">unsupported/Eigen/FFT</text>
</g>
<!-- Node1&#45;&gt;Node14 -->
<g id="edge13" class="edge"><title>Node1&#45;&gt;Node14</title>
<path fill="none" stroke="midnightblue" d="M757.285,-73.6716C854,-68.9972 1063.5,-56.6473 1238.5,-31 1245.91,-29.9139 1253.72,-28.5186 1261.32,-27.024"/>
<polygon fill="midnightblue" stroke="midnightblue" points="1262.03,-30.4509 1271.12,-25.0197 1260.63,-23.5926 1262.03,-30.4509"/>
</g>
<!-- Node15 -->
<g id="node15" class="node"><title>Node15</title>
<polygon fill="white" stroke="#bfbfbf" points="1385,-6 1385,-25 1518,-25 1518,-6 1385,-6"/>
<text text-anchor="middle" x="1451.5" y="-13" font-family="Helvetica,sans-Serif" font-size="10.00">unsupported/Eigen/Splines</text>
</g>
<!-- Node1&#45;&gt;Node15 -->
<g id="edge14" class="edge"><title>Node1&#45;&gt;Node15</title>
<path fill="none" stroke="midnightblue" d="M757.373,-74.668C871.814,-71.3405 1147.43,-60.6846 1376.5,-31 1384.91,-29.9097 1393.8,-28.459 1402.41,-26.896"/>
<polygon fill="midnightblue" stroke="midnightblue" points="1403.16,-30.3169 1412.34,-25.0244 1401.86,-23.4381 1403.16,-30.3169"/>
</g>
<!-- Node16 -->
<g id="node16" class="node"><title>Node16</title>
<polygon fill="white" stroke="#bfbfbf" points="1536.5,-0.5 1536.5,-30.5 1664.5,-30.5 1664.5,-0.5 1536.5,-0.5"/>
<text text-anchor="start" x="1544.5" y="-18.5" font-family="Helvetica,sans-Serif" font-size="10.00">unsupported/Eigen/Matrix</text>
<text text-anchor="middle" x="1600.5" y="-7.5" font-family="Helvetica,sans-Serif" font-size="10.00">Functions</text>
</g>
<!-- Node1&#45;&gt;Node16 -->
<g id="edge15" class="edge"><title>Node1&#45;&gt;Node16</title>
<path fill="none" stroke="midnightblue" d="M757.239,-75.6915C887.55,-74.3799 1230.77,-67.5521 1526.43,-31.0037"/>
<polygon fill="midnightblue" stroke="midnightblue" points="1527,-34.4601 1536.49,-29.7468 1526.13,-27.5142 1527,-34.4601"/>
</g>
</g>
</svg>
