<?xml version="1.0" encoding="UTF-8" standalone="no"?>
<!DOCTYPE svg PUBLIC "-//W3C//DTD SVG 1.1//EN"
 "http://www.w3.org/Graphics/SVG/1.1/DTD/svg11.dtd">
<!-- Generated by graphviz version 2.38.0 (20140413.2041)
 -->
<!-- Title: simpleseqplay.cc Pages: 1 -->
<svg width="1459pt" height="162pt"
 viewBox="0.00 0.00 1458.50 162.00" xmlns="http://www.w3.org/2000/svg" xmlns:xlink="http://www.w3.org/1999/xlink">
<g id="graph0" class="graph" transform="scale(1 1) rotate(0) translate(4 158)">
<title>simpleseqplay.cc</title>
<polygon fill="white" stroke="none" points="-4,4 -4,-158 1454.5,-158 1454.5,4 -4,4"/>
<!-- Node1 -->
<g id="node1" class="node"><title>Node1</title>
<polygon fill="#bfbfbf" stroke="black" points="315,-134.5 315,-153.5 407,-153.5 407,-134.5 315,-134.5"/>
<text text-anchor="middle" x="361" y="-141.5" font-family="Helvetica,sans-Serif" font-size="10.00">simpleseqplay.cc</text>
</g>
<!-- Node2 -->
<g id="node2" class="node"><title>Node2</title>
<polygon fill="white" stroke="#bfbfbf" points="-3.55271e-15,-73 -3.55271e-15,-92 44,-92 44,-73 -3.55271e-15,-73"/>
<text text-anchor="middle" x="22" y="-80" font-family="Helvetica,sans-Serif" font-size="10.00">vector</text>
</g>
<!-- Node1&#45;&gt;Node2 -->
<g id="edge1" class="edge"><title>Node1&#45;&gt;Node2</title>
<path fill="none" stroke="midnightblue" d="M314.89,-140.271C254.071,-135.765 144.195,-124.474 54,-98 52.0687,-97.4331 50.1036,-96.7715 48.1455,-96.0489"/>
<polygon fill="midnightblue" stroke="midnightblue" points="49.1796,-92.6885 38.602,-92.0848 46.4944,-99.1531 49.1796,-92.6885"/>
</g>
<!-- Node3 -->
<g id="node3" class="node"><title>Node3</title>
<polygon fill="white" stroke="#bfbfbf" points="62.5,-73 62.5,-92 121.5,-92 121.5,-73 62.5,-73"/>
<text text-anchor="middle" x="92" y="-80" font-family="Helvetica,sans-Serif" font-size="10.00">stdexcept</text>
</g>
<!-- Node1&#45;&gt;Node3 -->
<g id="edge2" class="edge"><title>Node1&#45;&gt;Node3</title>
<path fill="none" stroke="midnightblue" d="M314.662,-136.209C267.84,-128.817 193.661,-115.652 131,-98 128.353,-97.2545 125.632,-96.4101 122.916,-95.5128"/>
<polygon fill="midnightblue" stroke="midnightblue" points="123.844,-92.1291 113.249,-92.1129 121.521,-98.7326 123.844,-92.1291"/>
</g>
<!-- Node4 -->
<g id="node4" class="node"><title>Node4</title>
<polygon fill="white" stroke="#bfbfbf" points="140,-73 140,-92 242,-92 242,-73 140,-73"/>
<text text-anchor="middle" x="191" y="-80" font-family="Helvetica,sans-Serif" font-size="10.00">boost/tokenizer.hpp</text>
</g>
<!-- Node1&#45;&gt;Node4 -->
<g id="edge3" class="edge"><title>Node1&#45;&gt;Node4</title>
<path fill="none" stroke="midnightblue" d="M336.643,-134.475C307.356,-124.225 258.026,-106.959 224.998,-95.3994"/>
<polygon fill="midnightblue" stroke="midnightblue" points="225.907,-92.0091 215.312,-92.0091 223.594,-98.6162 225.907,-92.0091"/>
</g>
<!-- Node5 -->
<g id="node5" class="node"><title>Node5</title>
<polygon fill="white" stroke="#bfbfbf" points="312,-6 312,-25 366,-25 366,-6 312,-6"/>
<text text-anchor="middle" x="339" y="-13" font-family="Helvetica,sans-Serif" font-size="10.00">iostream</text>
</g>
<!-- Node1&#45;&gt;Node5 -->
<g id="edge4" class="edge"><title>Node1&#45;&gt;Node5</title>
<path fill="none" stroke="midnightblue" d="M335.496,-134.472C319.013,-127.478 298.861,-115.792 289,-98 282.321,-85.9494 283.759,-79.7421 289,-67 294.909,-52.6338 307.1,-40.1834 317.964,-31.2394"/>
<polygon fill="midnightblue" stroke="midnightblue" points="320.12,-33.9969 325.888,-25.1097 315.837,-28.4603 320.12,-33.9969"/>
</g>
<!-- Node6 -->
<g id="node6" class="node"><title>Node6</title>
<polygon fill="white" stroke="#bfbfbf" points="298,-67.5 298,-97.5 424,-97.5 424,-67.5 298,-67.5"/>
<text text-anchor="start" x="306" y="-85.5" font-family="Helvetica,sans-Serif" font-size="10.00">dynamic&#45;graph/command</text>
<text text-anchor="middle" x="361" y="-74.5" font-family="Helvetica,sans-Serif" font-size="10.00">&#45;bind.h</text>
</g>
<!-- Node1&#45;&gt;Node6 -->
<g id="edge5" class="edge"><title>Node1&#45;&gt;Node6</title>
<path fill="none" stroke="midnightblue" d="M361,-134.475C361,-127.471 361,-117.192 361,-107.696"/>
<polygon fill="midnightblue" stroke="midnightblue" points="364.5,-107.523 361,-97.523 357.5,-107.523 364.5,-107.523"/>
</g>
<!-- Node7 -->
<g id="node7" class="node"><title>Node7</title>
<polygon fill="white" stroke="#bfbfbf" points="442,-67.5 442,-97.5 568,-97.5 568,-67.5 442,-67.5"/>
<text text-anchor="start" x="450" y="-85.5" font-family="Helvetica,sans-Serif" font-size="10.00">dynamic&#45;graph/command</text>
<text text-anchor="middle" x="505" y="-74.5" font-family="Helvetica,sans-Serif" font-size="10.00">&#45;setter.h</text>
</g>
<!-- Node1&#45;&gt;Node7 -->
<g id="edge6" class="edge"><title>Node1&#45;&gt;Node7</title>
<path fill="none" stroke="midnightblue" d="M381.632,-134.475C402.41,-125.889 435.099,-112.383 461.608,-101.429"/>
<polygon fill="midnightblue" stroke="midnightblue" points="463.157,-104.577 471.062,-97.523 460.483,-98.1071 463.157,-104.577"/>
</g>
<!-- Node8 -->
<g id="node8" class="node"><title>Node8</title>
<polygon fill="white" stroke="#bfbfbf" points="586,-67.5 586,-97.5 712,-97.5 712,-67.5 586,-67.5"/>
<text text-anchor="start" x="594" y="-85.5" font-family="Helvetica,sans-Serif" font-size="10.00">dynamic&#45;graph/command</text>
<text text-anchor="middle" x="649" y="-74.5" font-family="Helvetica,sans-Serif" font-size="10.00">&#45;direct&#45;setter.h</text>
</g>
<!-- Node1&#45;&gt;Node8 -->
<g id="edge7" class="edge"><title>Node1&#45;&gt;Node8</title>
<path fill="none" stroke="midnightblue" d="M402.263,-134.475C447.435,-125.143 520.749,-109.996 575.745,-98.6342"/>
<polygon fill="midnightblue" stroke="midnightblue" points="576.705,-102.01 585.79,-96.559 575.289,-95.1547 576.705,-102.01"/>
</g>
<!-- Node9 -->
<g id="node9" class="node"><title>Node9</title>
<polygon fill="white" stroke="#bfbfbf" points="730,-67.5 730,-97.5 856,-97.5 856,-67.5 730,-67.5"/>
<text text-anchor="start" x="738" y="-85.5" font-family="Helvetica,sans-Serif" font-size="10.00">dynamic&#45;graph/command</text>
<text text-anchor="middle" x="793" y="-74.5" font-family="Helvetica,sans-Serif" font-size="10.00">&#45;direct&#45;getter.h</text>
</g>
<!-- Node1&#45;&gt;Node9 -->
<g id="edge8" class="edge"><title>Node1&#45;&gt;Node9</title>
<path fill="none" stroke="midnightblue" d="M407.188,-138.338C473.968,-131.353 601.567,-117.094 719.878,-98.1098"/>
<polygon fill="midnightblue" stroke="midnightblue" points="720.521,-101.551 729.832,-96.4977 719.402,-94.6415 720.521,-101.551"/>
</g>
<!-- Node10 -->
<g id="node10" class="node"><title>Node10</title>
<g id="a_node10"><a xlink:href="a00020.html" target="_top" xlink:title="simpleseqplay.hh">
<polygon fill="white" stroke="black" points="874,-73 874,-92 966,-92 966,-73 874,-73"/>
<text text-anchor="middle" x="920" y="-80" font-family="Helvetica,sans-Serif" font-size="10.00">simpleseqplay.hh</text>
</a>
</g>
</g>
<!-- Node1&#45;&gt;Node10 -->
<g id="edge9" class="edge"><title>Node1&#45;&gt;Node10</title>
<path fill="none" stroke="midnightblue" d="M407.204,-141.481C496.342,-137.975 697.996,-127.254 865,-98 870.411,-97.0522 876.066,-95.8318 881.606,-94.5018"/>
<polygon fill="midnightblue" stroke="midnightblue" points="882.54,-97.8759 891.372,-92.025 880.819,-91.0907 882.54,-97.8759"/>
</g>
<!-- Node10&#45;&gt;Node5 -->
<g id="edge10" class="edge"><title>Node10&#45;&gt;Node5</title>
<path fill="none" stroke="midnightblue" d="M891.081,-72.9362C882.727,-70.7187 873.555,-68.5279 865,-67 817.155,-58.4546 488.087,-29.4524 376.169,-19.7169"/>
<polygon fill="midnightblue" stroke="midnightblue" points="376.298,-16.215 366.032,-18.8362 375.692,-23.1887 376.298,-16.215"/>
</g>
<!-- Node11 -->
<g id="node11" class="node"><title>Node11</title>
<polygon fill="white" stroke="#bfbfbf" points="520,-6 520,-25 572,-25 572,-6 520,-6"/>
<text text-anchor="middle" x="546" y="-13" font-family="Helvetica,sans-Serif" font-size="10.00">sstream</text>
</g>
<!-- Node10&#45;&gt;Node11 -->
<g id="edge11" class="edge"><title>Node10&#45;&gt;Node11</title>
<path fill="none" stroke="midnightblue" d="M890.479,-72.9528C882.279,-70.7879 873.336,-68.62 865,-67 740.104,-42.73 703.975,-63.6382 581,-31 578.553,-30.3504 576.05,-29.5683 573.563,-28.7081"/>
<polygon fill="midnightblue" stroke="midnightblue" points="574.799,-25.4334 564.208,-25.1195 572.291,-31.969 574.799,-25.4334"/>
</g>
<!-- Node12 -->
<g id="node12" class="node"><title>Node12</title>
<polygon fill="white" stroke="#bfbfbf" points="590,-6 590,-25 640,-25 640,-6 590,-6"/>
<text text-anchor="middle" x="615" y="-13" font-family="Helvetica,sans-Serif" font-size="10.00">fstream</text>
</g>
<!-- Node10&#45;&gt;Node12 -->
<g id="edge12" class="edge"><title>Node10&#45;&gt;Node12</title>
<path fill="none" stroke="midnightblue" d="M889.574,-72.9411C881.612,-70.8493 873.014,-68.7203 865,-67 769.844,-46.5729 742.422,-58.2824 649,-31 646.848,-30.3715 644.65,-29.6445 642.459,-28.8576"/>
<polygon fill="midnightblue" stroke="midnightblue" points="643.645,-25.5631 633.059,-25.1437 641.073,-32.0734 643.645,-25.5631"/>
</g>
<!-- Node13 -->
<g id="node13" class="node"><title>Node13</title>
<polygon fill="white" stroke="#bfbfbf" points="658,-6 658,-25 774,-25 774,-6 658,-6"/>
<text text-anchor="middle" x="716" y="-13" font-family="Helvetica,sans-Serif" font-size="10.00">dynamic&#45;graph/entity.h</text>
</g>
<!-- Node10&#45;&gt;Node13 -->
<g id="edge13" class="edge"><title>Node10&#45;&gt;Node13</title>
<path fill="none" stroke="midnightblue" d="M892.91,-72.8685C856.841,-61.3758 792.918,-41.0082 752.59,-28.1586"/>
<polygon fill="midnightblue" stroke="midnightblue" points="753.467,-24.7648 742.877,-25.0637 751.342,-31.4344 753.467,-24.7648"/>
</g>
<!-- Node14 -->
<g id="node14" class="node"><title>Node14</title>
<polygon fill="white" stroke="#bfbfbf" points="792,-6 792,-25 914,-25 914,-6 792,-6"/>
<text text-anchor="middle" x="853" y="-13" font-family="Helvetica,sans-Serif" font-size="10.00">dynamic&#45;graph/factory.h</text>
</g>
<!-- Node10&#45;&gt;Node14 -->
<g id="edge14" class="edge"><title>Node10&#45;&gt;Node14</title>
<path fill="none" stroke="midnightblue" d="M910.964,-72.7338C900.315,-62.403 882.415,-45.0371 869.319,-32.3315"/>
<polygon fill="midnightblue" stroke="midnightblue" points="871.507,-29.5784 861.893,-25.1273 866.633,-34.6026 871.507,-29.5784"/>
</g>
<!-- Node15 -->
<g id="node15" class="node"><title>Node15</title>
<polygon fill="white" stroke="#bfbfbf" points="932.5,-0.5 932.5,-30.5 1039.5,-30.5 1039.5,-0.5 932.5,-0.5"/>
<text text-anchor="start" x="940.5" y="-18.5" font-family="Helvetica,sans-Serif" font-size="10.00">dynamic&#45;graph/linear</text>
<text text-anchor="middle" x="986" y="-7.5" font-family="Helvetica,sans-Serif" font-size="10.00">&#45;algebra.h</text>
</g>
<!-- Node10&#45;&gt;Node15 -->
<g id="edge15" class="edge"><title>Node10&#45;&gt;Node15</title>
<path fill="none" stroke="midnightblue" d="M928.901,-72.7338C937.992,-63.7804 952.449,-49.543 964.54,-37.6346"/>
<polygon fill="midnightblue" stroke="midnightblue" points="967.025,-40.0996 971.694,-30.589 962.113,-35.1122 967.025,-40.0996"/>
</g>
<!-- Node16 -->
<g id="node16" class="node"><title>Node16</title>
<polygon fill="white" stroke="#bfbfbf" points="1057.5,-0.5 1057.5,-30.5 1166.5,-30.5 1166.5,-0.5 1057.5,-0.5"/>
<text text-anchor="start" x="1065.5" y="-18.5" font-family="Helvetica,sans-Serif" font-size="10.00">dynamic&#45;graph/signal</text>
<text text-anchor="middle" x="1112" y="-7.5" font-family="Helvetica,sans-Serif" font-size="10.00">&#45;ptr.h</text>
</g>
<!-- Node10&#45;&gt;Node16 -->
<g id="edge16" class="edge"><title>Node10&#45;&gt;Node16</title>
<path fill="none" stroke="midnightblue" d="M945.496,-72.8685C974.805,-62.9461 1023.65,-46.4085 1060.88,-33.8051"/>
<polygon fill="midnightblue" stroke="midnightblue" points="1062.21,-37.05 1070.56,-30.5281 1059.97,-30.4196 1062.21,-37.05"/>
</g>
<!-- Node17 -->
<g id="node17" class="node"><title>Node17</title>
<polygon fill="white" stroke="#bfbfbf" points="1184.5,-0.5 1184.5,-30.5 1293.5,-30.5 1293.5,-0.5 1184.5,-0.5"/>
<text text-anchor="start" x="1192.5" y="-18.5" font-family="Helvetica,sans-Serif" font-size="10.00">dynamic&#45;graph/signal</text>
<text text-anchor="middle" x="1239" y="-7.5" font-family="Helvetica,sans-Serif" font-size="10.00">&#45;time&#45;dependent.h</text>
</g>
<!-- Node10&#45;&gt;Node17 -->
<g id="edge17" class="edge"><title>Node10&#45;&gt;Node17</title>
<path fill="none" stroke="midnightblue" d="M965.407,-72.9897C1014.55,-63.6797 1095.48,-48.0599 1174.29,-31.3321"/>
<polygon fill="midnightblue" stroke="midnightblue" points="1175.34,-34.6877 1184.39,-29.1801 1173.88,-27.8414 1175.34,-34.6877"/>
</g>
<!-- Node18 -->
<g id="node18" class="node"><title>Node18</title>
<polygon fill="white" stroke="#bfbfbf" points="1311.5,-6 1311.5,-25 1450.5,-25 1450.5,-6 1311.5,-6"/>
<text text-anchor="middle" x="1381" y="-13" font-family="Helvetica,sans-Serif" font-size="10.00">sot/core/matrix&#45;geometry.hh</text>
</g>
<!-- Node10&#45;&gt;Node18 -->
<g id="edge18" class="edge"><title>Node10&#45;&gt;Node18</title>
<path fill="none" stroke="midnightblue" d="M966.098,-76.2174C1038.15,-67.7811 1181.78,-50.2448 1303,-31 1310.93,-29.741 1319.29,-28.3034 1327.48,-26.834"/>
<polygon fill="midnightblue" stroke="midnightblue" points="1328.13,-30.2732 1337.34,-25.0356 1326.88,-23.3868 1328.13,-30.2732"/>
</g>
</g>
</svg>
