<?xml version="1.0" encoding="UTF-8" standalone="no"?>
<!DOCTYPE svg PUBLIC "-//W3C//DTD SVG 1.1//EN"
 "http://www.w3.org/Graphics/SVG/1.1/DTD/svg11.dtd">
<!-- Generated by graphviz version 2.38.0 (20140413.2041)
 -->
<!-- Title: simpleseqplay.hh Pages: 1 -->
<svg width="1011pt" height="95pt"
 viewBox="0.00 0.00 1010.50 95.00" xmlns="http://www.w3.org/2000/svg" xmlns:xlink="http://www.w3.org/1999/xlink">
<g id="graph0" class="graph" transform="scale(1 1) rotate(0) translate(4 91)">
<title>simpleseqplay.hh</title>
<polygon fill="white" stroke="none" points="-4,4 -4,-91 1006.5,-91 1006.5,4 -4,4"/>
<!-- Node1 -->
<g id="node1" class="node"><title>Node1</title>
<polygon fill="#bfbfbf" stroke="black" points="359,-67.5 359,-86.5 451,-86.5 451,-67.5 359,-67.5"/>
<text text-anchor="middle" x="405" y="-74.5" font-family="Helvetica,sans-Serif" font-size="10.00">simpleseqplay.hh</text>
</g>
<!-- Node2 -->
<g id="node2" class="node"><title>Node2</title>
<polygon fill="white" stroke="#bfbfbf" points="0,-6 0,-25 54,-25 54,-6 0,-6"/>
<text text-anchor="middle" x="27" y="-13" font-family="Helvetica,sans-Serif" font-size="10.00">iostream</text>
</g>
<!-- Node1&#45;&gt;Node2 -->
<g id="edge1" class="edge"><title>Node1&#45;&gt;Node2</title>
<path fill="none" stroke="midnightblue" d="M358.931,-73.627C292.576,-69.3833 166.68,-58.2332 63,-31 60.491,-30.341 57.9224,-29.5522 55.369,-28.6877"/>
<polygon fill="midnightblue" stroke="midnightblue" points="56.3459,-25.3163 45.7535,-25.0916 53.8939,-31.8728 56.3459,-25.3163"/>
</g>
<!-- Node3 -->
<g id="node3" class="node"><title>Node3</title>
<polygon fill="white" stroke="#bfbfbf" points="72,-6 72,-25 124,-25 124,-6 72,-6"/>
<text text-anchor="middle" x="98" y="-13" font-family="Helvetica,sans-Serif" font-size="10.00">sstream</text>
</g>
<!-- Node1&#45;&gt;Node3 -->
<g id="edge2" class="edge"><title>Node1&#45;&gt;Node3</title>
<path fill="none" stroke="midnightblue" d="M358.571,-71.5893C303.849,-65.6446 210.547,-53.1611 133,-31 130.706,-30.3443 128.358,-29.5832 126.02,-28.7598"/>
<polygon fill="midnightblue" stroke="midnightblue" points="127.199,-25.4633 116.609,-25.1341 124.682,-31.9953 127.199,-25.4633"/>
</g>
<!-- Node4 -->
<g id="node4" class="node"><title>Node4</title>
<polygon fill="white" stroke="#bfbfbf" points="142,-6 142,-25 192,-25 192,-6 142,-6"/>
<text text-anchor="middle" x="167" y="-13" font-family="Helvetica,sans-Serif" font-size="10.00">fstream</text>
</g>
<!-- Node1&#45;&gt;Node4 -->
<g id="edge3" class="edge"><title>Node1&#45;&gt;Node4</title>
<path fill="none" stroke="midnightblue" d="M358.982,-68.3787C317.208,-60.8668 254.189,-48.0444 201,-31 199.075,-30.3831 197.109,-29.6985 195.141,-28.9722"/>
<polygon fill="midnightblue" stroke="midnightblue" points="196.054,-25.5681 185.469,-25.1133 193.46,-32.0698 196.054,-25.5681"/>
</g>
<!-- Node5 -->
<g id="node5" class="node"><title>Node5</title>
<polygon fill="white" stroke="#bfbfbf" points="210,-6 210,-25 326,-25 326,-6 210,-6"/>
<text text-anchor="middle" x="268" y="-13" font-family="Helvetica,sans-Serif" font-size="10.00">dynamic&#45;graph/entity.h</text>
</g>
<!-- Node1&#45;&gt;Node5 -->
<g id="edge4" class="edge"><title>Node1&#45;&gt;Node5</title>
<path fill="none" stroke="midnightblue" d="M385.371,-67.4751C362.176,-57.4013 323.381,-40.5525 296.787,-29.0023"/>
<polygon fill="midnightblue" stroke="midnightblue" points="298.159,-25.7824 287.592,-25.0091 295.37,-32.203 298.159,-25.7824"/>
</g>
<!-- Node6 -->
<g id="node6" class="node"><title>Node6</title>
<polygon fill="white" stroke="#bfbfbf" points="344,-6 344,-25 466,-25 466,-6 344,-6"/>
<text text-anchor="middle" x="405" y="-13" font-family="Helvetica,sans-Serif" font-size="10.00">dynamic&#45;graph/factory.h</text>
</g>
<!-- Node1&#45;&gt;Node6 -->
<g id="edge5" class="edge"><title>Node1&#45;&gt;Node6</title>
<path fill="none" stroke="midnightblue" d="M405,-67.4751C405,-59.0803 405,-45.9806 405,-35.1631"/>
<polygon fill="midnightblue" stroke="midnightblue" points="408.5,-35.0091 405,-25.0091 401.5,-35.0091 408.5,-35.0091"/>
</g>
<!-- Node7 -->
<g id="node7" class="node"><title>Node7</title>
<polygon fill="white" stroke="#bfbfbf" points="484.5,-0.5 484.5,-30.5 591.5,-30.5 591.5,-0.5 484.5,-0.5"/>
<text text-anchor="start" x="492.5" y="-18.5" font-family="Helvetica,sans-Serif" font-size="10.00">dynamic&#45;graph/linear</text>
<text text-anchor="middle" x="538" y="-7.5" font-family="Helvetica,sans-Serif" font-size="10.00">&#45;algebra.h</text>
</g>
<!-- Node1&#45;&gt;Node7 -->
<g id="edge6" class="edge"><title>Node1&#45;&gt;Node7</title>
<path fill="none" stroke="midnightblue" d="M424.056,-67.4751C443.079,-58.9648 472.91,-45.6193 497.277,-34.718"/>
<polygon fill="midnightblue" stroke="midnightblue" points="498.956,-37.8016 506.655,-30.523 496.097,-31.4118 498.956,-37.8016"/>
</g>
<!-- Node8 -->
<g id="node8" class="node"><title>Node8</title>
<polygon fill="white" stroke="#bfbfbf" points="609.5,-0.5 609.5,-30.5 718.5,-30.5 718.5,-0.5 609.5,-0.5"/>
<text text-anchor="start" x="617.5" y="-18.5" font-family="Helvetica,sans-Serif" font-size="10.00">dynamic&#45;graph/signal</text>
<text text-anchor="middle" x="664" y="-7.5" font-family="Helvetica,sans-Serif" font-size="10.00">&#45;ptr.h</text>
</g>
<!-- Node1&#45;&gt;Node8 -->
<g id="edge7" class="edge"><title>Node1&#45;&gt;Node8</title>
<path fill="none" stroke="midnightblue" d="M442.211,-67.4629C479.558,-58.8932 539.019,-45.2455 599.294,-31.3915"/>
<polygon fill="midnightblue" stroke="midnightblue" points="600.403,-34.728 609.365,-29.0767 598.835,-27.9059 600.403,-34.728"/>
</g>
<!-- Node9 -->
<g id="node9" class="node"><title>Node9</title>
<polygon fill="white" stroke="#bfbfbf" points="736.5,-0.5 736.5,-30.5 845.5,-30.5 845.5,-0.5 736.5,-0.5"/>
<text text-anchor="start" x="744.5" y="-18.5" font-family="Helvetica,sans-Serif" font-size="10.00">dynamic&#45;graph/signal</text>
<text text-anchor="middle" x="791" y="-7.5" font-family="Helvetica,sans-Serif" font-size="10.00">&#45;time&#45;dependent.h</text>
</g>
<!-- Node1&#45;&gt;Node9 -->
<g id="edge8" class="edge"><title>Node1&#45;&gt;Node9</title>
<path fill="none" stroke="midnightblue" d="M451.205,-70.8562C512.12,-63.7897 622.811,-49.9665 726.422,-31.2009"/>
<polygon fill="midnightblue" stroke="midnightblue" points="727.219,-34.6132 736.425,-29.3695 725.958,-27.7277 727.219,-34.6132"/>
</g>
<!-- Node10 -->
<g id="node10" class="node"><title>Node10</title>
<polygon fill="white" stroke="#bfbfbf" points="863.5,-6 863.5,-25 1002.5,-25 1002.5,-6 863.5,-6"/>
<text text-anchor="middle" x="933" y="-13" font-family="Helvetica,sans-Serif" font-size="10.00">sot/core/matrix&#45;geometry.hh</text>
</g>
<!-- Node1&#45;&gt;Node10 -->
<g id="edge9" class="edge"><title>Node1&#45;&gt;Node10</title>
<path fill="none" stroke="midnightblue" d="M451.149,-72.6738C532.828,-66.4999 708.095,-51.9619 855,-31 863.33,-29.8113 872.127,-28.3642 880.693,-26.8496"/>
<polygon fill="midnightblue" stroke="midnightblue" points="881.386,-30.2811 890.601,-25.0522 880.137,-23.3935 881.386,-30.2811"/>
</g>
</g>
</svg>
