<?xml version="1.0" encoding="UTF-8" standalone="no"?>
<!DOCTYPE svg PUBLIC "-//W3C//DTD SVG 1.1//EN"
 "http://www.w3.org/Graphics/SVG/1.1/DTD/svg11.dtd">
<!-- Generated by graphviz version 2.38.0 (20140413.2041)
 -->
<!-- Title: oscillator.cc Pages: 1 -->
<svg width="1305pt" height="95pt"
 viewBox="0.00 0.00 1305.00 95.00" xmlns="http://www.w3.org/2000/svg" xmlns:xlink="http://www.w3.org/1999/xlink">
<g id="graph0" class="graph" transform="scale(1 1) rotate(0) translate(4 91)">
<title>oscillator.cc</title>
<polygon fill="white" stroke="none" points="-4,4 -4,-91 1301,-91 1301,4 -4,4"/>
<!-- Node1 -->
<g id="node1" class="node"><title>Node1</title>
<polygon fill="#bfbfbf" stroke="black" points="598.5,-67.5 598.5,-86.5 667.5,-86.5 667.5,-67.5 598.5,-67.5"/>
<text text-anchor="middle" x="633" y="-74.5" font-family="Helvetica,sans-Serif" font-size="10.00">oscillator.cc</text>
</g>
<!-- Node2 -->
<g id="node2" class="node"><title>Node2</title>
<polygon fill="white" stroke="#bfbfbf" points="0,-6 0,-25 40,-25 40,-6 0,-6"/>
<text text-anchor="middle" x="20" y="-13" font-family="Helvetica,sans-Serif" font-size="10.00">limits</text>
</g>
<!-- Node1&#45;&gt;Node2 -->
<g id="edge1" class="edge"><title>Node1&#45;&gt;Node2</title>
<path fill="none" stroke="midnightblue" d="M598.324,-75.0763C489.137,-71.8943 153.49,-59.9495 49,-31 47.2845,-30.5247 45.5502,-29.9456 43.8281,-29.2955"/>
<polygon fill="midnightblue" stroke="midnightblue" points="44.8679,-25.9259 34.3114,-25.0256 42.0023,-32.3125 44.8679,-25.9259"/>
</g>
<!-- Node3 -->
<g id="node3" class="node"><title>Node3</title>
<polygon fill="white" stroke="#bfbfbf" points="58,-6 58,-25 192,-25 192,-6 58,-6"/>
<text text-anchor="middle" x="125" y="-13" font-family="Helvetica,sans-Serif" font-size="10.00">dynamic&#45;graph/command.h</text>
</g>
<!-- Node1&#45;&gt;Node3 -->
<g id="edge2" class="edge"><title>Node1&#45;&gt;Node3</title>
<path fill="none" stroke="midnightblue" d="M598.437,-73.4004C525.011,-67.6582 348.152,-52.6619 201,-31 192.969,-29.8178 184.495,-28.3858 176.234,-26.8878"/>
<polygon fill="midnightblue" stroke="midnightblue" points="176.78,-23.4292 166.308,-25.0401 175.499,-30.311 176.78,-23.4292"/>
</g>
<!-- Node4 -->
<g id="node4" class="node"><title>Node4</title>
<polygon fill="white" stroke="#bfbfbf" points="210,-0.5 210,-30.5 336,-30.5 336,-0.5 210,-0.5"/>
<text text-anchor="start" x="218" y="-18.5" font-family="Helvetica,sans-Serif" font-size="10.00">dynamic&#45;graph/command</text>
<text text-anchor="middle" x="273" y="-7.5" font-family="Helvetica,sans-Serif" font-size="10.00">&#45;bind.h</text>
</g>
<!-- Node1&#45;&gt;Node4 -->
<g id="edge3" class="edge"><title>Node1&#45;&gt;Node4</title>
<path fill="none" stroke="midnightblue" d="M598.34,-71.0843C545.96,-63.5467 443.278,-48.3472 346.169,-31.1647"/>
<polygon fill="midnightblue" stroke="midnightblue" points="346.645,-27.6944 336.186,-29.3876 345.418,-34.5861 346.645,-27.6944"/>
</g>
<!-- Node5 -->
<g id="node5" class="node"><title>Node5</title>
<polygon fill="white" stroke="#bfbfbf" points="354,-0.5 354,-30.5 480,-30.5 480,-0.5 354,-0.5"/>
<text text-anchor="start" x="362" y="-18.5" font-family="Helvetica,sans-Serif" font-size="10.00">dynamic&#45;graph/command</text>
<text text-anchor="middle" x="417" y="-7.5" font-family="Helvetica,sans-Serif" font-size="10.00">&#45;setter.h</text>
</g>
<!-- Node1&#45;&gt;Node5 -->
<g id="edge4" class="edge"><title>Node1&#45;&gt;Node5</title>
<path fill="none" stroke="midnightblue" d="M602.052,-67.4751C569.722,-58.5694 518.171,-44.3688 477.68,-33.2151"/>
<polygon fill="midnightblue" stroke="midnightblue" points="478.477,-29.8044 467.907,-30.523 476.618,-36.5531 478.477,-29.8044"/>
</g>
<!-- Node6 -->
<g id="node6" class="node"><title>Node6</title>
<polygon fill="white" stroke="#bfbfbf" points="498,-0.5 498,-30.5 624,-30.5 624,-0.5 498,-0.5"/>
<text text-anchor="start" x="506" y="-18.5" font-family="Helvetica,sans-Serif" font-size="10.00">dynamic&#45;graph/command</text>
<text text-anchor="middle" x="561" y="-7.5" font-family="Helvetica,sans-Serif" font-size="10.00">&#45;direct&#45;setter.h</text>
</g>
<!-- Node1&#45;&gt;Node6 -->
<g id="edge5" class="edge"><title>Node1&#45;&gt;Node6</title>
<path fill="none" stroke="midnightblue" d="M622.684,-67.4751C613.115,-59.5673 598.494,-47.4847 585.888,-37.0675"/>
<polygon fill="midnightblue" stroke="midnightblue" points="587.907,-34.1952 577.969,-30.523 583.448,-39.5912 587.907,-34.1952"/>
</g>
<!-- Node7 -->
<g id="node7" class="node"><title>Node7</title>
<polygon fill="white" stroke="#bfbfbf" points="642,-0.5 642,-30.5 768,-30.5 768,-0.5 642,-0.5"/>
<text text-anchor="start" x="650" y="-18.5" font-family="Helvetica,sans-Serif" font-size="10.00">dynamic&#45;graph/command</text>
<text text-anchor="middle" x="705" y="-7.5" font-family="Helvetica,sans-Serif" font-size="10.00">&#45;direct&#45;getter.h</text>
</g>
<!-- Node1&#45;&gt;Node7 -->
<g id="edge6" class="edge"><title>Node1&#45;&gt;Node7</title>
<path fill="none" stroke="midnightblue" d="M643.316,-67.4751C652.885,-59.5673 667.506,-47.4847 680.112,-37.0675"/>
<polygon fill="midnightblue" stroke="midnightblue" points="682.552,-39.5912 688.031,-30.523 678.093,-34.1952 682.552,-39.5912"/>
</g>
<!-- Node8 -->
<g id="node8" class="node"><title>Node8</title>
<polygon fill="white" stroke="#bfbfbf" points="786.5,-0.5 786.5,-30.5 895.5,-30.5 895.5,-0.5 786.5,-0.5"/>
<text text-anchor="start" x="794.5" y="-18.5" font-family="Helvetica,sans-Serif" font-size="10.00">dynamic&#45;graph/signal</text>
<text text-anchor="middle" x="841" y="-7.5" font-family="Helvetica,sans-Serif" font-size="10.00">&#45;time&#45;dependent.h</text>
</g>
<!-- Node1&#45;&gt;Node8 -->
<g id="edge7" class="edge"><title>Node1&#45;&gt;Node8</title>
<path fill="none" stroke="midnightblue" d="M662.801,-67.4751C693.868,-58.5882 743.366,-44.4288 782.32,-33.2859"/>
<polygon fill="midnightblue" stroke="midnightblue" points="783.327,-36.6383 791.979,-30.523 781.402,-29.9083 783.327,-36.6383"/>
</g>
<!-- Node9 -->
<g id="node9" class="node"><title>Node9</title>
<polygon fill="white" stroke="#bfbfbf" points="913.5,-0.5 913.5,-30.5 1022.5,-30.5 1022.5,-0.5 913.5,-0.5"/>
<text text-anchor="start" x="921.5" y="-18.5" font-family="Helvetica,sans-Serif" font-size="10.00">dynamic&#45;graph/signal</text>
<text text-anchor="middle" x="968" y="-7.5" font-family="Helvetica,sans-Serif" font-size="10.00">&#45;ptr.h</text>
</g>
<!-- Node1&#45;&gt;Node9 -->
<g id="edge8" class="edge"><title>Node1&#45;&gt;Node9</title>
<path fill="none" stroke="midnightblue" d="M667.904,-70.9366C717.963,-63.5199 813.241,-48.8281 903.558,-31.2197"/>
<polygon fill="midnightblue" stroke="midnightblue" points="904.272,-34.6466 913.409,-29.2835 902.922,-27.778 904.272,-34.6466"/>
</g>
<!-- Node10 -->
<g id="node10" class="node"><title>Node10</title>
<polygon fill="white" stroke="#bfbfbf" points="1041,-6 1041,-25 1163,-25 1163,-6 1041,-6"/>
<text text-anchor="middle" x="1102" y="-13" font-family="Helvetica,sans-Serif" font-size="10.00">dynamic&#45;graph/factory.h</text>
</g>
<!-- Node1&#45;&gt;Node10 -->
<g id="edge9" class="edge"><title>Node1&#45;&gt;Node10</title>
<path fill="none" stroke="midnightblue" d="M667.569,-73.1795C736.936,-67.2824 897.937,-52.3986 1032,-31 1039.16,-29.8568 1046.7,-28.48 1054.07,-27.0358"/>
<polygon fill="midnightblue" stroke="midnightblue" points="1054.86,-30.4478 1063.97,-25.0402 1053.48,-23.5859 1054.86,-30.4478"/>
</g>
<!-- Node11 -->
<g id="node11" class="node"><title>Node11</title>
<polygon fill="white" stroke="#bfbfbf" points="1181,-6 1181,-25 1297,-25 1297,-6 1181,-6"/>
<text text-anchor="middle" x="1239" y="-13" font-family="Helvetica,sans-Serif" font-size="10.00">dynamic&#45;graph/entity.h</text>
</g>
<!-- Node1&#45;&gt;Node11 -->
<g id="edge10" class="edge"><title>Node1&#45;&gt;Node11</title>
<path fill="none" stroke="midnightblue" d="M667.546,-74.6723C753.325,-71.0385 982.772,-59.2532 1172,-31 1178.96,-29.9609 1186.28,-28.6283 1193.42,-27.1933"/>
<polygon fill="midnightblue" stroke="midnightblue" points="1194.62,-30.5172 1203.69,-25.0397 1193.19,-23.6662 1194.62,-30.5172"/>
</g>
</g>
</svg>
