<?xml version="1.0" encoding="UTF-8" standalone="no"?>
<!DOCTYPE svg PUBLIC "-//W3C//DTD SVG 1.1//EN"
 "http://www.w3.org/Graphics/SVG/1.1/DTD/svg11.dtd">
<!-- Generated by graphviz version 2.38.0 (20140413.2041)
 -->
<!-- Title: cubic&#45;interpolation.cc Pages: 1 -->
<svg width="886pt" height="162pt"
 viewBox="0.00 0.00 885.50 162.00" xmlns="http://www.w3.org/2000/svg" xmlns:xlink="http://www.w3.org/1999/xlink">
<g id="graph0" class="graph" transform="scale(1 1) rotate(0) translate(4 158)">
<title>cubic&#45;interpolation.cc</title>
<polygon fill="white" stroke="none" points="-4,4 -4,-158 881.5,-158 881.5,4 -4,4"/>
<!-- Node1 -->
<g id="node1" class="node"><title>Node1</title>
<polygon fill="#bfbfbf" stroke="black" points="304.5,-134.5 304.5,-153.5 413.5,-153.5 413.5,-134.5 304.5,-134.5"/>
<text text-anchor="middle" x="359" y="-141.5" font-family="Helvetica,sans-Serif" font-size="10.00">cubic&#45;interpolation.cc</text>
</g>
<!-- Node2 -->
<g id="node2" class="node"><title>Node2</title>
<polygon fill="white" stroke="#bfbfbf" points="0,-73 0,-92 134,-92 134,-73 0,-73"/>
<text text-anchor="middle" x="67" y="-80" font-family="Helvetica,sans-Serif" font-size="10.00">dynamic&#45;graph/command.h</text>
</g>
<!-- Node1&#45;&gt;Node2 -->
<g id="edge1" class="edge"><title>Node1&#45;&gt;Node2</title>
<path fill="none" stroke="midnightblue" d="M317.164,-134.475C264.798,-123.805 175.131,-105.534 118.573,-94.0089"/>
<polygon fill="midnightblue" stroke="midnightblue" points="119.256,-90.5763 108.759,-92.0091 117.859,-97.4353 119.256,-90.5763"/>
</g>
<!-- Node3 -->
<g id="node3" class="node"><title>Node3</title>
<polygon fill="white" stroke="#bfbfbf" points="152,-67.5 152,-97.5 278,-97.5 278,-67.5 152,-67.5"/>
<text text-anchor="start" x="160" y="-85.5" font-family="Helvetica,sans-Serif" font-size="10.00">dynamic&#45;graph/command</text>
<text text-anchor="middle" x="215" y="-74.5" font-family="Helvetica,sans-Serif" font-size="10.00">&#45;bind.h</text>
</g>
<!-- Node1&#45;&gt;Node3 -->
<g id="edge2" class="edge"><title>Node1&#45;&gt;Node3</title>
<path fill="none" stroke="midnightblue" d="M338.368,-134.475C317.59,-125.889 284.901,-112.383 258.392,-101.429"/>
<polygon fill="midnightblue" stroke="midnightblue" points="259.517,-98.1071 248.938,-97.523 256.843,-104.577 259.517,-98.1071"/>
</g>
<!-- Node4 -->
<g id="node4" class="node"><title>Node4</title>
<polygon fill="white" stroke="#bfbfbf" points="296,-67.5 296,-97.5 422,-97.5 422,-67.5 296,-67.5"/>
<text text-anchor="start" x="304" y="-85.5" font-family="Helvetica,sans-Serif" font-size="10.00">dynamic&#45;graph/command</text>
<text text-anchor="middle" x="359" y="-74.5" font-family="Helvetica,sans-Serif" font-size="10.00">&#45;setter.h</text>
</g>
<!-- Node1&#45;&gt;Node4 -->
<g id="edge3" class="edge"><title>Node1&#45;&gt;Node4</title>
<path fill="none" stroke="midnightblue" d="M359,-134.475C359,-127.471 359,-117.192 359,-107.696"/>
<polygon fill="midnightblue" stroke="midnightblue" points="362.5,-107.523 359,-97.523 355.5,-107.523 362.5,-107.523"/>
</g>
<!-- Node5 -->
<g id="node5" class="node"><title>Node5</title>
<polygon fill="white" stroke="#bfbfbf" points="440,-73 440,-92 562,-92 562,-73 440,-73"/>
<text text-anchor="middle" x="501" y="-80" font-family="Helvetica,sans-Serif" font-size="10.00">dynamic&#45;graph/factory.h</text>
</g>
<!-- Node1&#45;&gt;Node5 -->
<g id="edge4" class="edge"><title>Node1&#45;&gt;Node5</title>
<path fill="none" stroke="midnightblue" d="M379.345,-134.475C403.387,-124.401 443.597,-107.553 471.163,-96.0023"/>
<polygon fill="midnightblue" stroke="midnightblue" points="472.822,-99.1018 480.693,-92.0091 470.117,-92.6457 472.822,-99.1018"/>
</g>
<!-- Node6 -->
<g id="node6" class="node"><title>Node6</title>
<g id="a_node6"><a xlink:href="a00011.html" target="_top" xlink:title="cubic&#45;interpolation.hh">
<polygon fill="white" stroke="black" points="580.5,-73 580.5,-92 689.5,-92 689.5,-73 580.5,-73"/>
<text text-anchor="middle" x="635" y="-80" font-family="Helvetica,sans-Serif" font-size="10.00">cubic&#45;interpolation.hh</text>
</a>
</g>
</g>
<!-- Node1&#45;&gt;Node6 -->
<g id="edge5" class="edge"><title>Node1&#45;&gt;Node6</title>
<path fill="none" stroke="midnightblue" d="M400.073,-134.455C442.808,-125.523 511.646,-111.022 571,-98 576.425,-96.8098 582.105,-95.547 587.745,-94.2825"/>
<polygon fill="midnightblue" stroke="midnightblue" points="588.806,-97.6314 597.793,-92.0199 587.268,-90.8024 588.806,-97.6314"/>
</g>
<!-- Node7 -->
<g id="node7" class="node"><title>Node7</title>
<polygon fill="white" stroke="#bfbfbf" points="382,-6 382,-25 498,-25 498,-6 382,-6"/>
<text text-anchor="middle" x="440" y="-13" font-family="Helvetica,sans-Serif" font-size="10.00">dynamic&#45;graph/entity.h</text>
</g>
<!-- Node6&#45;&gt;Node7 -->
<g id="edge6" class="edge"><title>Node6&#45;&gt;Node7</title>
<path fill="none" stroke="midnightblue" d="M609.106,-72.8685C574.773,-61.4245 514.042,-41.1807 475.467,-28.3223"/>
<polygon fill="midnightblue" stroke="midnightblue" points="476.285,-24.9056 465.691,-25.0637 474.071,-31.5464 476.285,-24.9056"/>
</g>
<!-- Node8 -->
<g id="node8" class="node"><title>Node8</title>
<polygon fill="white" stroke="#bfbfbf" points="516.5,-0.5 516.5,-30.5 625.5,-30.5 625.5,-0.5 516.5,-0.5"/>
<text text-anchor="start" x="524.5" y="-18.5" font-family="Helvetica,sans-Serif" font-size="10.00">dynamic&#45;graph/signal</text>
<text text-anchor="middle" x="571" y="-7.5" font-family="Helvetica,sans-Serif" font-size="10.00">&#45;ptr.h</text>
</g>
<!-- Node6&#45;&gt;Node8 -->
<g id="edge7" class="edge"><title>Node6&#45;&gt;Node8</title>
<path fill="none" stroke="midnightblue" d="M626.369,-72.7338C617.636,-63.8649 603.799,-49.8111 592.142,-37.9722"/>
<polygon fill="midnightblue" stroke="midnightblue" points="594.382,-35.2591 584.872,-30.589 589.394,-40.1703 594.382,-35.2591"/>
</g>
<!-- Node9 -->
<g id="node9" class="node"><title>Node9</title>
<polygon fill="white" stroke="#bfbfbf" points="643.5,-0.5 643.5,-30.5 752.5,-30.5 752.5,-0.5 643.5,-0.5"/>
<text text-anchor="start" x="651.5" y="-18.5" font-family="Helvetica,sans-Serif" font-size="10.00">dynamic&#45;graph/signal</text>
<text text-anchor="middle" x="698" y="-7.5" font-family="Helvetica,sans-Serif" font-size="10.00">&#45;time&#45;dependent.h</text>
</g>
<!-- Node6&#45;&gt;Node9 -->
<g id="edge8" class="edge"><title>Node6&#45;&gt;Node9</title>
<path fill="none" stroke="midnightblue" d="M643.496,-72.7338C652.093,-63.8649 665.714,-49.8111 677.188,-37.9722"/>
<polygon fill="midnightblue" stroke="midnightblue" points="679.898,-40.2056 684.344,-30.589 674.871,-35.3338 679.898,-40.2056"/>
</g>
<!-- Node10 -->
<g id="node10" class="node"><title>Node10</title>
<polygon fill="white" stroke="#bfbfbf" points="770.5,-0.5 770.5,-30.5 877.5,-30.5 877.5,-0.5 770.5,-0.5"/>
<text text-anchor="start" x="778.5" y="-18.5" font-family="Helvetica,sans-Serif" font-size="10.00">dynamic&#45;graph/linear</text>
<text text-anchor="middle" x="824" y="-7.5" font-family="Helvetica,sans-Serif" font-size="10.00">&#45;algebra.h</text>
</g>
<!-- Node6&#45;&gt;Node10 -->
<g id="edge9" class="edge"><title>Node6&#45;&gt;Node10</title>
<path fill="none" stroke="midnightblue" d="M660.098,-72.8685C688.949,-62.9461 737.035,-46.4085 773.682,-33.8051"/>
<polygon fill="midnightblue" stroke="midnightblue" points="774.893,-37.0901 783.211,-30.5281 772.616,-30.4706 774.893,-37.0901"/>
</g>
</g>
</svg>
