<?xml version="1.0" encoding="UTF-8" standalone="no"?>
<!DOCTYPE svg PUBLIC "-//W3C//DTD SVG 1.1//EN"
 "http://www.w3.org/Graphics/SVG/1.1/DTD/svg11.dtd">
<!-- Generated by graphviz version 2.38.0 (20140413.2041)
 -->
<!-- Title: cubic&#45;interpolation&#45;se3.cc Pages: 1 -->
<svg width="911pt" height="173pt"
 viewBox="0.00 0.00 910.50 173.00" xmlns="http://www.w3.org/2000/svg" xmlns:xlink="http://www.w3.org/1999/xlink">
<g id="graph0" class="graph" transform="scale(1 1) rotate(0) translate(4 169)">
<title>cubic&#45;interpolation&#45;se3.cc</title>
<polygon fill="white" stroke="none" points="-4,4 -4,-169 906.5,-169 906.5,4 -4,4"/>
<!-- Node1 -->
<g id="node1" class="node"><title>Node1</title>
<polygon fill="#bfbfbf" stroke="black" points="311.5,-134.5 311.5,-164.5 406.5,-164.5 406.5,-134.5 311.5,-134.5"/>
<text text-anchor="start" x="319.5" y="-152.5" font-family="Helvetica,sans-Serif" font-size="10.00">cubic&#45;interpolation</text>
<text text-anchor="middle" x="359" y="-141.5" font-family="Helvetica,sans-Serif" font-size="10.00">&#45;se3.cc</text>
</g>
<!-- Node2 -->
<g id="node2" class="node"><title>Node2</title>
<polygon fill="white" stroke="#bfbfbf" points="0,-73 0,-92 134,-92 134,-73 0,-73"/>
<text text-anchor="middle" x="67" y="-80" font-family="Helvetica,sans-Serif" font-size="10.00">dynamic&#45;graph/command.h</text>
</g>
<!-- Node1&#45;&gt;Node2 -->
<g id="edge1" class="edge"><title>Node1&#45;&gt;Node2</title>
<path fill="none" stroke="midnightblue" d="M311.435,-137.912C257.387,-125.881 169.651,-106.351 115.3,-94.2517"/>
<polygon fill="midnightblue" stroke="midnightblue" points="115.747,-90.7656 105.225,-92.0091 114.226,-97.5984 115.747,-90.7656"/>
</g>
<!-- Node3 -->
<g id="node3" class="node"><title>Node3</title>
<polygon fill="white" stroke="#bfbfbf" points="152,-67.5 152,-97.5 278,-97.5 278,-67.5 152,-67.5"/>
<text text-anchor="start" x="160" y="-85.5" font-family="Helvetica,sans-Serif" font-size="10.00">dynamic&#45;graph/command</text>
<text text-anchor="middle" x="215" y="-74.5" font-family="Helvetica,sans-Serif" font-size="10.00">&#45;bind.h</text>
</g>
<!-- Node1&#45;&gt;Node3 -->
<g id="edge2" class="edge"><title>Node1&#45;&gt;Node3</title>
<path fill="none" stroke="midnightblue" d="M327.754,-134.396C306.525,-124.814 278.249,-112.05 255.323,-101.702"/>
<polygon fill="midnightblue" stroke="midnightblue" points="256.739,-98.5007 246.185,-97.5765 253.859,-104.881 256.739,-98.5007"/>
</g>
<!-- Node4 -->
<g id="node4" class="node"><title>Node4</title>
<polygon fill="white" stroke="#bfbfbf" points="296,-67.5 296,-97.5 422,-97.5 422,-67.5 296,-67.5"/>
<text text-anchor="start" x="304" y="-85.5" font-family="Helvetica,sans-Serif" font-size="10.00">dynamic&#45;graph/command</text>
<text text-anchor="middle" x="359" y="-74.5" font-family="Helvetica,sans-Serif" font-size="10.00">&#45;setter.h</text>
</g>
<!-- Node1&#45;&gt;Node4 -->
<g id="edge3" class="edge"><title>Node1&#45;&gt;Node4</title>
<path fill="none" stroke="midnightblue" d="M359,-134.396C359,-126.645 359,-116.812 359,-107.86"/>
<polygon fill="midnightblue" stroke="midnightblue" points="362.5,-107.576 359,-97.5765 355.5,-107.577 362.5,-107.576"/>
</g>
<!-- Node5 -->
<g id="node5" class="node"><title>Node5</title>
<polygon fill="white" stroke="#bfbfbf" points="440,-73 440,-92 562,-92 562,-73 440,-73"/>
<text text-anchor="middle" x="501" y="-80" font-family="Helvetica,sans-Serif" font-size="10.00">dynamic&#45;graph/factory.h</text>
</g>
<!-- Node1&#45;&gt;Node5 -->
<g id="edge4" class="edge"><title>Node1&#45;&gt;Node5</title>
<path fill="none" stroke="midnightblue" d="M389.812,-134.396C414.617,-123.041 449.181,-107.22 473.16,-96.2437"/>
<polygon fill="midnightblue" stroke="midnightblue" points="474.78,-99.3516 482.415,-92.007 471.866,-92.9868 474.78,-99.3516"/>
</g>
<!-- Node6 -->
<g id="node6" class="node"><title>Node6</title>
<g id="a_node6"><a xlink:href="a00009.html" target="_top" xlink:title="cubic&#45;interpolation\l&#45;se3.hh">
<polygon fill="white" stroke="black" points="580.5,-67.5 580.5,-97.5 675.5,-97.5 675.5,-67.5 580.5,-67.5"/>
<text text-anchor="start" x="588.5" y="-85.5" font-family="Helvetica,sans-Serif" font-size="10.00">cubic&#45;interpolation</text>
<text text-anchor="middle" x="628" y="-74.5" font-family="Helvetica,sans-Serif" font-size="10.00">&#45;se3.hh</text>
</a>
</g>
</g>
<!-- Node1&#45;&gt;Node6 -->
<g id="edge5" class="edge"><title>Node1&#45;&gt;Node6</title>
<path fill="none" stroke="midnightblue" d="M406.622,-137.375C447.438,-127.791 508.064,-113.438 570.41,-98.1247"/>
<polygon fill="midnightblue" stroke="midnightblue" points="571.554,-101.448 580.428,-95.6594 569.881,-94.6504 571.554,-101.448"/>
</g>
<!-- Node7 -->
<g id="node7" class="node"><title>Node7</title>
<polygon fill="white" stroke="#bfbfbf" points="375,-6 375,-25 491,-25 491,-6 375,-6"/>
<text text-anchor="middle" x="433" y="-13" font-family="Helvetica,sans-Serif" font-size="10.00">dynamic&#45;graph/entity.h</text>
</g>
<!-- Node6&#45;&gt;Node7 -->
<g id="edge6" class="edge"><title>Node6&#45;&gt;Node7</title>
<path fill="none" stroke="midnightblue" d="M585.688,-67.396C550.565,-55.6882 501.194,-39.2314 468.201,-28.2336"/>
<polygon fill="midnightblue" stroke="midnightblue" points="469.115,-24.849 458.521,-25.007 466.901,-31.4897 469.115,-24.849"/>
</g>
<!-- Node8 -->
<g id="node8" class="node"><title>Node8</title>
<polygon fill="white" stroke="#bfbfbf" points="509.5,-0.5 509.5,-30.5 618.5,-30.5 618.5,-0.5 509.5,-0.5"/>
<text text-anchor="start" x="517.5" y="-18.5" font-family="Helvetica,sans-Serif" font-size="10.00">dynamic&#45;graph/signal</text>
<text text-anchor="middle" x="564" y="-7.5" font-family="Helvetica,sans-Serif" font-size="10.00">&#45;ptr.h</text>
</g>
<!-- Node6&#45;&gt;Node8 -->
<g id="edge7" class="edge"><title>Node6&#45;&gt;Node8</title>
<path fill="none" stroke="midnightblue" d="M614.113,-67.396C605.642,-58.7931 594.647,-47.626 585.115,-37.9448"/>
<polygon fill="midnightblue" stroke="midnightblue" points="587.37,-35.2466 577.86,-30.5765 582.382,-40.1578 587.37,-35.2466"/>
</g>
<!-- Node9 -->
<g id="node9" class="node"><title>Node9</title>
<polygon fill="white" stroke="#bfbfbf" points="636.5,-0.5 636.5,-30.5 745.5,-30.5 745.5,-0.5 636.5,-0.5"/>
<text text-anchor="start" x="644.5" y="-18.5" font-family="Helvetica,sans-Serif" font-size="10.00">dynamic&#45;graph/signal</text>
<text text-anchor="middle" x="691" y="-7.5" font-family="Helvetica,sans-Serif" font-size="10.00">&#45;time&#45;dependent.h</text>
</g>
<!-- Node6&#45;&gt;Node9 -->
<g id="edge8" class="edge"><title>Node6&#45;&gt;Node9</title>
<path fill="none" stroke="midnightblue" d="M641.67,-67.396C650.008,-58.7931 660.832,-47.626 670.215,-37.9448"/>
<polygon fill="midnightblue" stroke="midnightblue" points="672.91,-40.1931 677.357,-30.5765 667.884,-35.3213 672.91,-40.1931"/>
</g>
<!-- Node10 -->
<g id="node10" class="node"><title>Node10</title>
<polygon fill="white" stroke="#bfbfbf" points="763.5,-6 763.5,-25 902.5,-25 902.5,-6 763.5,-6"/>
<text text-anchor="middle" x="833" y="-13" font-family="Helvetica,sans-Serif" font-size="10.00">sot/core/matrix&#45;geometry.hh</text>
</g>
<!-- Node6&#45;&gt;Node10 -->
<g id="edge9" class="edge"><title>Node6&#45;&gt;Node10</title>
<path fill="none" stroke="midnightblue" d="M672.23,-67.476C709.296,-55.7232 761.586,-39.1433 796.351,-28.1205"/>
<polygon fill="midnightblue" stroke="midnightblue" points="797.627,-31.3875 806.102,-25.0287 795.512,-24.7149 797.627,-31.3875"/>
</g>
</g>
</svg>
