<?xml version="1.0" encoding="UTF-8" standalone="no"?>
<!DOCTYPE svg PUBLIC "-//W3C//DTD SVG 1.1//EN"
 "http://www.w3.org/Graphics/SVG/1.1/DTD/svg11.dtd">
<!-- Generated by graphviz version 2.38.0 (20140413.2041)
 -->
<!-- Title: cubic&#45;interpolation&#45;se3.hh Pages: 1 -->
<svg width="536pt" height="106pt"
 viewBox="0.00 0.00 535.50 106.00" xmlns="http://www.w3.org/2000/svg" xmlns:xlink="http://www.w3.org/1999/xlink">
<g id="graph0" class="graph" transform="scale(1 1) rotate(0) translate(4 102)">
<title>cubic&#45;interpolation&#45;se3.hh</title>
<polygon fill="white" stroke="none" points="-4,4 -4,-102 531.5,-102 531.5,4 -4,4"/>
<!-- Node1 -->
<g id="node1" class="node"><title>Node1</title>
<polygon fill="#bfbfbf" stroke="black" points="204.5,-67.5 204.5,-97.5 299.5,-97.5 299.5,-67.5 204.5,-67.5"/>
<text text-anchor="start" x="212.5" y="-85.5" font-family="Helvetica,sans-Serif" font-size="10.00">cubic&#45;interpolation</text>
<text text-anchor="middle" x="252" y="-74.5" font-family="Helvetica,sans-Serif" font-size="10.00">&#45;se3.hh</text>
</g>
<!-- Node2 -->
<g id="node2" class="node"><title>Node2</title>
<polygon fill="white" stroke="#bfbfbf" points="0,-6 0,-25 116,-25 116,-6 0,-6"/>
<text text-anchor="middle" x="58" y="-13" font-family="Helvetica,sans-Serif" font-size="10.00">dynamic&#45;graph/entity.h</text>
</g>
<!-- Node1&#45;&gt;Node2 -->
<g id="edge1" class="edge"><title>Node1&#45;&gt;Node2</title>
<path fill="none" stroke="midnightblue" d="M209.905,-67.396C174.962,-55.6882 125.844,-39.2314 93.0201,-28.2336"/>
<polygon fill="midnightblue" stroke="midnightblue" points="93.984,-24.8653 83.3901,-25.007 91.7601,-31.5027 93.984,-24.8653"/>
</g>
<!-- Node3 -->
<g id="node3" class="node"><title>Node3</title>
<polygon fill="white" stroke="#bfbfbf" points="134.5,-0.5 134.5,-30.5 243.5,-30.5 243.5,-0.5 134.5,-0.5"/>
<text text-anchor="start" x="142.5" y="-18.5" font-family="Helvetica,sans-Serif" font-size="10.00">dynamic&#45;graph/signal</text>
<text text-anchor="middle" x="189" y="-7.5" font-family="Helvetica,sans-Serif" font-size="10.00">&#45;ptr.h</text>
</g>
<!-- Node1&#45;&gt;Node3 -->
<g id="edge2" class="edge"><title>Node1&#45;&gt;Node3</title>
<path fill="none" stroke="midnightblue" d="M238.33,-67.396C229.992,-58.7931 219.168,-47.626 209.785,-37.9448"/>
<polygon fill="midnightblue" stroke="midnightblue" points="212.116,-35.3213 202.643,-30.5765 207.09,-40.1931 212.116,-35.3213"/>
</g>
<!-- Node4 -->
<g id="node4" class="node"><title>Node4</title>
<polygon fill="white" stroke="#bfbfbf" points="261.5,-0.5 261.5,-30.5 370.5,-30.5 370.5,-0.5 261.5,-0.5"/>
<text text-anchor="start" x="269.5" y="-18.5" font-family="Helvetica,sans-Serif" font-size="10.00">dynamic&#45;graph/signal</text>
<text text-anchor="middle" x="316" y="-7.5" font-family="Helvetica,sans-Serif" font-size="10.00">&#45;time&#45;dependent.h</text>
</g>
<!-- Node1&#45;&gt;Node4 -->
<g id="edge3" class="edge"><title>Node1&#45;&gt;Node4</title>
<path fill="none" stroke="midnightblue" d="M265.887,-67.396C274.358,-58.7931 285.353,-47.626 294.885,-37.9448"/>
<polygon fill="midnightblue" stroke="midnightblue" points="297.618,-40.1578 302.14,-30.5765 292.63,-35.2466 297.618,-40.1578"/>
</g>
<!-- Node5 -->
<g id="node5" class="node"><title>Node5</title>
<polygon fill="white" stroke="#bfbfbf" points="388.5,-6 388.5,-25 527.5,-25 527.5,-6 388.5,-6"/>
<text text-anchor="middle" x="458" y="-13" font-family="Helvetica,sans-Serif" font-size="10.00">sot/core/matrix&#45;geometry.hh</text>
</g>
<!-- Node1&#45;&gt;Node5 -->
<g id="edge4" class="edge"><title>Node1&#45;&gt;Node5</title>
<path fill="none" stroke="midnightblue" d="M296.445,-67.476C333.693,-55.7232 386.238,-39.1433 421.172,-28.1205"/>
<polygon fill="midnightblue" stroke="midnightblue" points="422.487,-31.3756 430.971,-25.0287 420.381,-24.7 422.487,-31.3756"/>
</g>
</g>
</svg>
