<?xml version="1.0" encoding="UTF-8" standalone="no"?>
<!DOCTYPE svg PUBLIC "-//W3C//DTD SVG 1.1//EN"
 "http://www.w3.org/Graphics/SVG/1.1/DTD/svg11.dtd">
<!-- Generated by graphviz version 2.38.0 (20140413.2041)
 -->
<!-- Title: dynamicgraph::sot::tools::CubicInterpolation Pages: 1 -->
<svg width="130pt" height="139pt"
 viewBox="0.00 0.00 130.00 139.00" xmlns="http://www.w3.org/2000/svg" xmlns:xlink="http://www.w3.org/1999/xlink">
<g id="graph0" class="graph" transform="scale(1 1) rotate(0) translate(4 135)">
<title>dynamicgraph::sot::tools::CubicInterpolation</title>
<polygon fill="white" stroke="none" points="-4,4 -4,-135 126,-135 126,4 -4,4"/>
<!-- Node1 -->
<g id="node1" class="node"><title>Node1</title>
<polygon fill="#bfbfbf" stroke="black" points="0,-0.5 0,-30.5 122,-30.5 122,-0.5 0,-0.5"/>
<text text-anchor="start" x="8" y="-18.5" font-family="Helvetica,sans-Serif" font-size="10.00">dynamicgraph::sot::</text>
<text text-anchor="middle" x="61" y="-7.5" font-family="Helvetica,sans-Serif" font-size="10.00">tools::CubicInterpolation</text>
</g>
<!-- Node2 -->
<g id="node2" class="node"><title>Node2</title>
<polygon fill="white" stroke="#bfbfbf" points="9,-111.5 9,-130.5 51,-130.5 51,-111.5 9,-111.5"/>
<text text-anchor="middle" x="30" y="-118.5" font-family="Helvetica,sans-Serif" font-size="10.00">Entity</text>
</g>
<!-- Node2&#45;&gt;Node1 -->
<g id="edge1" class="edge"><title>Node2&#45;&gt;Node1</title>
<path fill="none" stroke="midnightblue" d="M35.5235,-101.559C41.5838,-81.3251 51.1823,-49.2785 56.7049,-30.8403"/>
<polygon fill="midnightblue" stroke="midnightblue" points="32.1595,-100.592 32.643,-111.176 38.8652,-102.6 32.1595,-100.592"/>
</g>
<!-- Node3 -->
<g id="node3" class="node"><title>Node3</title>
<polygon fill="white" stroke="#bfbfbf" points="69.5,-111.5 69.5,-130.5 114.5,-130.5 114.5,-111.5 69.5,-111.5"/>
<text text-anchor="middle" x="92" y="-118.5" font-family="Helvetica,sans-Serif" font-size="10.00">Vector</text>
</g>
<!-- Node3&#45;&gt;Node1 -->
<g id="edge2" class="edge"><title>Node3&#45;&gt;Node1</title>
<path fill="none" stroke="#9a32cd" stroke-dasharray="5,2" d="M86.4765,-101.559C80.4162,-81.3251 70.8177,-49.2785 65.2951,-30.8403"/>
<polygon fill="#9a32cd" stroke="#9a32cd" points="83.1348,-102.6 89.357,-111.176 89.8405,-100.592 83.1348,-102.6"/>
<text text-anchor="middle" x="93.5" y="-85" font-family="Helvetica,sans-Serif" font-size="10.00"> p3_</text>
<text text-anchor="middle" x="93.5" y="-74" font-family="Helvetica,sans-Serif" font-size="10.00">p2_</text>
<text text-anchor="middle" x="93.5" y="-63" font-family="Helvetica,sans-Serif" font-size="10.00">p1_</text>
<text text-anchor="middle" x="93.5" y="-52" font-family="Helvetica,sans-Serif" font-size="10.00">p0_</text>
</g>
</g>
</svg>
