<?xml version="1.0" encoding="UTF-8" standalone="no"?>
<!DOCTYPE svg PUBLIC "-//W3C//DTD SVG 1.1//EN"
 "http://www.w3.org/Graphics/SVG/1.1/DTD/svg11.dtd">
<!-- Generated by graphviz version 2.38.0 (20140413.2041)
 -->
<!-- Title: cubic&#45;interpolation.hh Pages: 1 -->
<svg width="504pt" height="95pt"
 viewBox="0.00 0.00 503.50 95.00" xmlns="http://www.w3.org/2000/svg" xmlns:xlink="http://www.w3.org/1999/xlink">
<g id="graph0" class="graph" transform="scale(1 1) rotate(0) translate(4 91)">
<title>cubic&#45;interpolation.hh</title>
<polygon fill="white" stroke="none" points="-4,4 -4,-91 499.5,-91 499.5,4 -4,4"/>
<!-- Node1 -->
<g id="node1" class="node"><title>Node1</title>
<polygon fill="#bfbfbf" stroke="black" points="197.5,-67.5 197.5,-86.5 306.5,-86.5 306.5,-67.5 197.5,-67.5"/>
<text text-anchor="middle" x="252" y="-74.5" font-family="Helvetica,sans-Serif" font-size="10.00">cubic&#45;interpolation.hh</text>
</g>
<!-- Node2 -->
<g id="node2" class="node"><title>Node2</title>
<polygon fill="white" stroke="#bfbfbf" points="0,-6 0,-25 116,-25 116,-6 0,-6"/>
<text text-anchor="middle" x="58" y="-13" font-family="Helvetica,sans-Serif" font-size="10.00">dynamic&#45;graph/entity.h</text>
</g>
<!-- Node1&#45;&gt;Node2 -->
<g id="edge1" class="edge"><title>Node1&#45;&gt;Node2</title>
<path fill="none" stroke="midnightblue" d="M224.205,-67.4751C190.35,-57.092 133.029,-39.5116 95.3453,-27.9538"/>
<polygon fill="midnightblue" stroke="midnightblue" points="96.3307,-24.5952 85.7439,-25.0091 94.2781,-31.2875 96.3307,-24.5952"/>
</g>
<!-- Node3 -->
<g id="node3" class="node"><title>Node3</title>
<polygon fill="white" stroke="#bfbfbf" points="134.5,-0.5 134.5,-30.5 243.5,-30.5 243.5,-0.5 134.5,-0.5"/>
<text text-anchor="start" x="142.5" y="-18.5" font-family="Helvetica,sans-Serif" font-size="10.00">dynamic&#45;graph/signal</text>
<text text-anchor="middle" x="189" y="-7.5" font-family="Helvetica,sans-Serif" font-size="10.00">&#45;ptr.h</text>
</g>
<!-- Node1&#45;&gt;Node3 -->
<g id="edge2" class="edge"><title>Node1&#45;&gt;Node3</title>
<path fill="none" stroke="midnightblue" d="M242.974,-67.4751C234.76,-59.7179 222.293,-47.9435 211.409,-37.6645"/>
<polygon fill="midnightblue" stroke="midnightblue" points="213.521,-34.8447 203.848,-30.523 208.715,-39.9338 213.521,-34.8447"/>
</g>
<!-- Node4 -->
<g id="node4" class="node"><title>Node4</title>
<polygon fill="white" stroke="#bfbfbf" points="261.5,-0.5 261.5,-30.5 370.5,-30.5 370.5,-0.5 261.5,-0.5"/>
<text text-anchor="start" x="269.5" y="-18.5" font-family="Helvetica,sans-Serif" font-size="10.00">dynamic&#45;graph/signal</text>
<text text-anchor="middle" x="316" y="-7.5" font-family="Helvetica,sans-Serif" font-size="10.00">&#45;time&#45;dependent.h</text>
</g>
<!-- Node1&#45;&gt;Node4 -->
<g id="edge3" class="edge"><title>Node1&#45;&gt;Node4</title>
<path fill="none" stroke="midnightblue" d="M261.17,-67.4751C269.595,-59.6426 282.425,-47.7145 293.556,-37.3656"/>
<polygon fill="midnightblue" stroke="midnightblue" points="295.976,-39.8953 300.916,-30.523 291.209,-34.7685 295.976,-39.8953"/>
</g>
<!-- Node5 -->
<g id="node5" class="node"><title>Node5</title>
<polygon fill="white" stroke="#bfbfbf" points="388.5,-0.5 388.5,-30.5 495.5,-30.5 495.5,-0.5 388.5,-0.5"/>
<text text-anchor="start" x="396.5" y="-18.5" font-family="Helvetica,sans-Serif" font-size="10.00">dynamic&#45;graph/linear</text>
<text text-anchor="middle" x="442" y="-7.5" font-family="Helvetica,sans-Serif" font-size="10.00">&#45;algebra.h</text>
</g>
<!-- Node1&#45;&gt;Node5 -->
<g id="edge4" class="edge"><title>Node1&#45;&gt;Node5</title>
<path fill="none" stroke="midnightblue" d="M279.222,-67.4751C307.36,-58.6635 352.05,-44.6684 387.491,-33.5698"/>
<polygon fill="midnightblue" stroke="midnightblue" points="388.724,-36.8516 397.221,-30.523 386.632,-30.1715 388.724,-36.8516"/>
</g>
</g>
</svg>
