<?xml version="1.0" encoding="UTF-8" standalone="no"?>
<!DOCTYPE svg PUBLIC "-//W3C//DTD SVG 1.1//EN"
 "http://www.w3.org/Graphics/SVG/1.1/DTD/svg11.dtd">
<!-- Generated by graphviz version 2.38.0 (20140413.2041)
 -->
<!-- Title: seqplay.hh Pages: 1 -->
<svg width="160pt" height="84pt"
 viewBox="0.00 0.00 159.50 84.00" xmlns="http://www.w3.org/2000/svg" xmlns:xlink="http://www.w3.org/1999/xlink">
<g id="graph0" class="graph" transform="scale(1 1) rotate(0) translate(4 80)">
<title>seqplay.hh</title>
<polygon fill="white" stroke="none" points="-4,4 -4,-80 155.5,-80 155.5,4 -4,4"/>
<!-- Node1 -->
<g id="node1" class="node"><title>Node1</title>
<polygon fill="#bfbfbf" stroke="black" points="44.5,-56.5 44.5,-75.5 108.5,-75.5 108.5,-56.5 44.5,-56.5"/>
<text text-anchor="middle" x="76.5" y="-63.5" font-family="Helvetica,sans-Serif" font-size="10.00">seqplay.hh</text>
</g>
<!-- Node2 -->
<g id="node2" class="node"><title>Node2</title>
<g id="a_node2"><a xlink:href="a00015.html" target="_top" xlink:title="playback.cc">
<polygon fill="white" stroke="black" points="0,-0.5 0,-19.5 69,-19.5 69,-0.5 0,-0.5"/>
<text text-anchor="middle" x="34.5" y="-7.5" font-family="Helvetica,sans-Serif" font-size="10.00">playback.cc</text>
</a>
</g>
</g>
<!-- Node1&#45;&gt;Node2 -->
<g id="edge1" class="edge"><title>Node1&#45;&gt;Node2</title>
<path fill="none" stroke="midnightblue" d="M63.3898,-48.144C56.0722,-38.7357 47.2591,-27.4046 41.3064,-19.7511"/>
<polygon fill="midnightblue" stroke="midnightblue" points="60.6624,-50.3383 69.5646,-56.083 66.1878,-46.0406 60.6624,-50.3383"/>
</g>
<!-- Node3 -->
<g id="node3" class="node"><title>Node3</title>
<g id="a_node3"><a xlink:href="a00017.html" target="_top" xlink:title="seqplay.cc">
<polygon fill="white" stroke="black" points="87.5,-0.5 87.5,-19.5 151.5,-19.5 151.5,-0.5 87.5,-0.5"/>
<text text-anchor="middle" x="119.5" y="-7.5" font-family="Helvetica,sans-Serif" font-size="10.00">seqplay.cc</text>
</a>
</g>
</g>
<!-- Node1&#45;&gt;Node3 -->
<g id="edge2" class="edge"><title>Node1&#45;&gt;Node3</title>
<path fill="none" stroke="midnightblue" d="M89.9224,-48.144C97.4142,-38.7357 106.437,-27.4046 112.532,-19.7511"/>
<polygon fill="midnightblue" stroke="midnightblue" points="87.0919,-46.0799 83.6006,-56.083 92.5679,-50.4404 87.0919,-46.0799"/>
</g>
</g>
</svg>
