<?xml version="1.0" encoding="UTF-8" standalone="no"?>
<!DOCTYPE svg PUBLIC "-//W3C//DTD SVG 1.1//EN"
 "http://www.w3.org/Graphics/SVG/1.1/DTD/svg11.dtd">
<!-- Generated by graphviz version 2.38.0 (20140413.2041)
 -->
<!-- Title: dynamicgraph::sot::tools::CubicInterpolationSE3 Pages: 1 -->
<svg width="149pt" height="161pt"
 viewBox="0.00 0.00 149.00 161.00" xmlns="http://www.w3.org/2000/svg" xmlns:xlink="http://www.w3.org/1999/xlink">
<g id="graph0" class="graph" transform="scale(1 1) rotate(0) translate(4 157)">
<title>dynamicgraph::sot::tools::CubicInterpolationSE3</title>
<polygon fill="white" stroke="none" points="-4,4 -4,-157 145,-157 145,4 -4,4"/>
<!-- Node1 -->
<g id="node1" class="node"><title>Node1</title>
<polygon fill="#bfbfbf" stroke="black" points="0,-0.5 0,-30.5 141,-30.5 141,-0.5 0,-0.5"/>
<text text-anchor="start" x="8" y="-18.5" font-family="Helvetica,sans-Serif" font-size="10.00">dynamicgraph::sot::</text>
<text text-anchor="middle" x="70.5" y="-7.5" font-family="Helvetica,sans-Serif" font-size="10.00">tools::CubicInterpolationSE3</text>
</g>
<!-- Node2 -->
<g id="node2" class="node"><title>Node2</title>
<polygon fill="white" stroke="#bfbfbf" points="18.5,-133.5 18.5,-152.5 60.5,-152.5 60.5,-133.5 18.5,-133.5"/>
<text text-anchor="middle" x="39.5" y="-140.5" font-family="Helvetica,sans-Serif" font-size="10.00">Entity</text>
</g>
<!-- Node2&#45;&gt;Node1 -->
<g id="edge1" class="edge"><title>Node2&#45;&gt;Node1</title>
<path fill="none" stroke="midnightblue" d="M44.0457,-123.597C50.2745,-98.3806 61.3312,-53.619 66.9741,-30.7743"/>
<polygon fill="midnightblue" stroke="midnightblue" points="40.631,-122.826 41.6308,-133.374 47.4268,-124.505 40.631,-122.826"/>
</g>
<!-- Node3 -->
<g id="node3" class="node"><title>Node3</title>
<polygon fill="white" stroke="#bfbfbf" points="79,-133.5 79,-152.5 124,-152.5 124,-133.5 79,-133.5"/>
<text text-anchor="middle" x="101.5" y="-140.5" font-family="Helvetica,sans-Serif" font-size="10.00">Vector</text>
</g>
<!-- Node3&#45;&gt;Node1 -->
<g id="edge2" class="edge"><title>Node3&#45;&gt;Node1</title>
<path fill="none" stroke="#9a32cd" stroke-dasharray="5,2" d="M96.9543,-123.597C90.7255,-98.3806 79.6688,-53.619 74.0259,-30.7743"/>
<polygon fill="#9a32cd" stroke="#9a32cd" points="93.5732,-124.505 99.3692,-133.374 100.369,-122.826 93.5732,-124.505"/>
<text text-anchor="middle" x="115.5" y="-107" font-family="Helvetica,sans-Serif" font-size="10.00"> p3_</text>
<text text-anchor="middle" x="115.5" y="-96" font-family="Helvetica,sans-Serif" font-size="10.00">p2_</text>
<text text-anchor="middle" x="115.5" y="-85" font-family="Helvetica,sans-Serif" font-size="10.00">p1_</text>
<text text-anchor="middle" x="115.5" y="-74" font-family="Helvetica,sans-Serif" font-size="10.00">soutdot_</text>
<text text-anchor="middle" x="115.5" y="-63" font-family="Helvetica,sans-Serif" font-size="10.00">p0_</text>
<text text-anchor="middle" x="115.5" y="-52" font-family="Helvetica,sans-Serif" font-size="10.00">position_</text>
</g>
</g>
</svg>
