<?xml version="1.0" encoding="UTF-8" standalone="no"?>
<!DOCTYPE svg PUBLIC "-//W3C//DTD SVG 1.1//EN"
 "http://www.w3.org/Graphics/SVG/1.1/DTD/svg11.dtd">
<!-- Generated by graphviz version 2.38.0 (20140413.2041)
 -->
<!-- Title: kinematic&#45;planner.cc Pages: 1 -->
<svg width="1672pt" height="162pt"
 viewBox="0.00 0.00 1672.00 162.00" xmlns="http://www.w3.org/2000/svg" xmlns:xlink="http://www.w3.org/1999/xlink">
<g id="graph0" class="graph" transform="scale(1 1) rotate(0) translate(4 158)">
<title>kinematic&#45;planner.cc</title>
<polygon fill="white" stroke="none" points="-4,4 -4,-158 1668,-158 1668,4 -4,4"/>
<!-- Node1 -->
<g id="node1" class="node"><title>Node1</title>
<polygon fill="#bfbfbf" stroke="black" points="720.5,-134.5 720.5,-153.5 827.5,-153.5 827.5,-134.5 720.5,-134.5"/>
<text text-anchor="middle" x="774" y="-141.5" font-family="Helvetica,sans-Serif" font-size="10.00">kinematic&#45;planner.cc</text>
</g>
<!-- Node2 -->
<g id="node2" class="node"><title>Node2</title>
<g id="a_node2"><a xlink:href="a00013.html" target="_top" xlink:title="kinematic&#45;planner.hh">
<polygon fill="white" stroke="black" points="585.5,-73 585.5,-92 692.5,-92 692.5,-73 585.5,-73"/>
<text text-anchor="middle" x="639" y="-80" font-family="Helvetica,sans-Serif" font-size="10.00">kinematic&#45;planner.hh</text>
</a>
</g>
</g>
<!-- Node1&#45;&gt;Node2 -->
<g id="edge1" class="edge"><title>Node1&#45;&gt;Node2</title>
<path fill="none" stroke="midnightblue" d="M754.658,-134.475C731.901,-124.445 693.908,-107.7 667.712,-96.1546"/>
<polygon fill="midnightblue" stroke="midnightblue" points="668.869,-92.8395 658.306,-92.0091 666.045,-99.2449 668.869,-92.8395"/>
</g>
<!-- Node4 -->
<g id="node4" class="node"><title>Node4</title>
<polygon fill="white" stroke="#bfbfbf" points="0,-6 0,-25 52,-25 52,-6 0,-6"/>
<text text-anchor="middle" x="26" y="-13" font-family="Helvetica,sans-Serif" font-size="10.00">sstream</text>
</g>
<!-- Node1&#45;&gt;Node4 -->
<g id="edge19" class="edge"><title>Node1&#45;&gt;Node4</title>
<path fill="none" stroke="midnightblue" d="M720.303,-138.936C600.225,-128.905 301.634,-98.7089 61,-31 58.5624,-30.3141 56.0664,-29.5066 53.5847,-28.6295"/>
<polygon fill="midnightblue" stroke="midnightblue" points="54.8269,-25.3573 44.2377,-25.0123 52.3005,-31.8856 54.8269,-25.3573"/>
</g>
<!-- Node18 -->
<g id="node18" class="node"><title>Node18</title>
<polygon fill="white" stroke="#bfbfbf" points="711,-67.5 711,-97.5 837,-97.5 837,-67.5 711,-67.5"/>
<text text-anchor="start" x="719" y="-85.5" font-family="Helvetica,sans-Serif" font-size="10.00">dynamic&#45;graph/command</text>
<text text-anchor="middle" x="774" y="-74.5" font-family="Helvetica,sans-Serif" font-size="10.00">&#45;bind.h</text>
</g>
<!-- Node1&#45;&gt;Node18 -->
<g id="edge17" class="edge"><title>Node1&#45;&gt;Node18</title>
<path fill="none" stroke="midnightblue" d="M774,-134.475C774,-127.471 774,-117.192 774,-107.696"/>
<polygon fill="midnightblue" stroke="midnightblue" points="777.5,-107.523 774,-97.523 770.5,-107.523 777.5,-107.523"/>
</g>
<!-- Node19 -->
<g id="node19" class="node"><title>Node19</title>
<polygon fill="white" stroke="#bfbfbf" points="855,-73 855,-92 905,-92 905,-73 855,-73"/>
<text text-anchor="middle" x="880" y="-80" font-family="Helvetica,sans-Serif" font-size="10.00">fstream</text>
</g>
<!-- Node1&#45;&gt;Node19 -->
<g id="edge18" class="edge"><title>Node1&#45;&gt;Node19</title>
<path fill="none" stroke="midnightblue" d="M789.187,-134.475C806.662,-124.666 835.579,-108.435 856.083,-96.925"/>
<polygon fill="midnightblue" stroke="midnightblue" points="857.834,-99.956 864.841,-92.0091 854.408,-93.8519 857.834,-99.956"/>
</g>
<!-- Node20 -->
<g id="node20" class="node"><title>Node20</title>
<polygon fill="white" stroke="#bfbfbf" points="923,-73 923,-92 967,-92 967,-73 923,-73"/>
<text text-anchor="middle" x="945" y="-80" font-family="Helvetica,sans-Serif" font-size="10.00">time.h</text>
</g>
<!-- Node1&#45;&gt;Node20 -->
<g id="edge20" class="edge"><title>Node1&#45;&gt;Node20</title>
<path fill="none" stroke="midnightblue" d="M804.428,-134.43C833.051,-126.085 876.93,-112.56 914,-98 915.417,-97.4434 916.861,-96.8529 918.313,-96.241"/>
<polygon fill="midnightblue" stroke="midnightblue" points="920.078,-99.2864 927.789,-92.0214 917.23,-92.8917 920.078,-99.2864"/>
</g>
<!-- Node3 -->
<g id="node3" class="node"><title>Node3</title>
<polygon fill="white" stroke="#bfbfbf" points="70.5,-6 70.5,-25 111.5,-25 111.5,-6 70.5,-6"/>
<text text-anchor="middle" x="91" y="-13" font-family="Helvetica,sans-Serif" font-size="10.00">string</text>
</g>
<!-- Node2&#45;&gt;Node3 -->
<g id="edge2" class="edge"><title>Node2&#45;&gt;Node3</title>
<path fill="none" stroke="midnightblue" d="M585.409,-78.6701C471.223,-72.2513 207.341,-55.2403 121,-31 119.12,-30.4723 117.215,-29.8317 115.323,-29.1171"/>
<polygon fill="midnightblue" stroke="midnightblue" points="116.725,-25.9103 106.161,-25.1085 113.919,-32.3234 116.725,-25.9103"/>
</g>
<!-- Node2&#45;&gt;Node4 -->
<g id="edge3" class="edge"><title>Node2&#45;&gt;Node4</title>
<path fill="none" stroke="midnightblue" d="M585.428,-78.9111C461.816,-72.5994 159.7,-55.1487 61,-31 58.4844,-30.3845 55.9147,-29.6153 53.367,-28.7543"/>
<polygon fill="midnightblue" stroke="midnightblue" points="54.4018,-25.4031 43.811,-25.1091 51.9069,-31.9434 54.4018,-25.4031"/>
</g>
<!-- Node5 -->
<g id="node5" class="node"><title>Node5</title>
<polygon fill="white" stroke="#bfbfbf" points="129.5,-6 129.5,-25 158.5,-25 158.5,-6 129.5,-6"/>
<text text-anchor="middle" x="144" y="-13" font-family="Helvetica,sans-Serif" font-size="10.00">list</text>
</g>
<!-- Node2&#45;&gt;Node5 -->
<g id="edge4" class="edge"><title>Node2&#45;&gt;Node5</title>
<path fill="none" stroke="midnightblue" d="M585.28,-78.6744C478.69,-72.5891 244.177,-56.6799 168,-31 167.112,-30.7006 166.222,-30.3643 165.335,-29.9983"/>
<polygon fill="midnightblue" stroke="midnightblue" points="166.687,-26.7572 156.197,-25.2698 163.47,-32.9741 166.687,-26.7572"/>
</g>
<!-- Node6 -->
<g id="node6" class="node"><title>Node6</title>
<polygon fill="white" stroke="#bfbfbf" points="176.5,-6 176.5,-25 229.5,-25 229.5,-6 176.5,-6"/>
<text text-anchor="middle" x="203" y="-13" font-family="Helvetica,sans-Serif" font-size="10.00">complex</text>
</g>
<!-- Node2&#45;&gt;Node6 -->
<g id="edge5" class="edge"><title>Node2&#45;&gt;Node6</title>
<path fill="none" stroke="midnightblue" d="M585.267,-79.2912C507.5,-75.0754 359.58,-63.2152 238,-31 235.552,-30.3514 233.049,-29.57 230.563,-28.7103"/>
<polygon fill="midnightblue" stroke="midnightblue" points="231.798,-25.4355 221.208,-25.1225 229.291,-31.9713 231.798,-25.4355"/>
</g>
<!-- Node7 -->
<g id="node7" class="node"><title>Node7</title>
<polygon fill="white" stroke="#bfbfbf" points="247,-6 247,-25 363,-25 363,-6 247,-6"/>
<text text-anchor="middle" x="305" y="-13" font-family="Helvetica,sans-Serif" font-size="10.00">dynamic&#45;graph/entity.h</text>
</g>
<!-- Node2&#45;&gt;Node7 -->
<g id="edge6" class="edge"><title>Node2&#45;&gt;Node7</title>
<path fill="none" stroke="midnightblue" d="M591.661,-72.9335C538.231,-63.1748 448.751,-46.5606 372,-31 366.097,-29.8032 359.909,-28.5129 353.78,-27.2129"/>
<polygon fill="midnightblue" stroke="midnightblue" points="354.093,-23.7006 343.582,-25.0305 352.628,-30.5456 354.093,-23.7006"/>
</g>
<!-- Node8 -->
<g id="node8" class="node"><title>Node8</title>
<polygon fill="white" stroke="#bfbfbf" points="381,-6 381,-25 503,-25 503,-6 381,-6"/>
<text text-anchor="middle" x="442" y="-13" font-family="Helvetica,sans-Serif" font-size="10.00">dynamic&#45;graph/factory.h</text>
</g>
<!-- Node2&#45;&gt;Node8 -->
<g id="edge7" class="edge"><title>Node2&#45;&gt;Node8</title>
<path fill="none" stroke="midnightblue" d="M612.84,-72.8685C578.156,-61.4245 516.801,-41.1807 477.831,-28.3223"/>
<polygon fill="midnightblue" stroke="midnightblue" points="478.548,-24.8733 467.955,-25.0637 476.354,-31.5208 478.548,-24.8733"/>
</g>
<!-- Node9 -->
<g id="node9" class="node"><title>Node9</title>
<polygon fill="white" stroke="#bfbfbf" points="521.5,-0.5 521.5,-30.5 630.5,-30.5 630.5,-0.5 521.5,-0.5"/>
<text text-anchor="start" x="529.5" y="-18.5" font-family="Helvetica,sans-Serif" font-size="10.00">dynamic&#45;graph/signal</text>
<text text-anchor="middle" x="576" y="-7.5" font-family="Helvetica,sans-Serif" font-size="10.00">&#45;base.h</text>
</g>
<!-- Node2&#45;&gt;Node9 -->
<g id="edge8" class="edge"><title>Node2&#45;&gt;Node9</title>
<path fill="none" stroke="midnightblue" d="M630.504,-72.7338C621.907,-63.8649 608.286,-49.8111 596.812,-37.9722"/>
<polygon fill="midnightblue" stroke="midnightblue" points="599.129,-35.3338 589.656,-30.589 594.102,-40.2056 599.129,-35.3338"/>
</g>
<!-- Node10 -->
<g id="node10" class="node"><title>Node10</title>
<polygon fill="white" stroke="#bfbfbf" points="648.5,-0.5 648.5,-30.5 757.5,-30.5 757.5,-0.5 648.5,-0.5"/>
<text text-anchor="start" x="656.5" y="-18.5" font-family="Helvetica,sans-Serif" font-size="10.00">dynamic&#45;graph/signal</text>
<text text-anchor="middle" x="703" y="-7.5" font-family="Helvetica,sans-Serif" font-size="10.00">&#45;ptr.h</text>
</g>
<!-- Node2&#45;&gt;Node10 -->
<g id="edge9" class="edge"><title>Node2&#45;&gt;Node10</title>
<path fill="none" stroke="midnightblue" d="M647.631,-72.7338C656.364,-63.8649 670.201,-49.8111 681.858,-37.9722"/>
<polygon fill="midnightblue" stroke="midnightblue" points="684.606,-40.1703 689.128,-30.589 679.618,-35.2591 684.606,-40.1703"/>
</g>
<!-- Node11 -->
<g id="node11" class="node"><title>Node11</title>
<polygon fill="white" stroke="#bfbfbf" points="775.5,-0.5 775.5,-30.5 884.5,-30.5 884.5,-0.5 775.5,-0.5"/>
<text text-anchor="start" x="783.5" y="-18.5" font-family="Helvetica,sans-Serif" font-size="10.00">dynamic&#45;graph/signal</text>
<text text-anchor="middle" x="830" y="-7.5" font-family="Helvetica,sans-Serif" font-size="10.00">&#45;time&#45;dependent.h</text>
</g>
<!-- Node2&#45;&gt;Node11 -->
<g id="edge10" class="edge"><title>Node2&#45;&gt;Node11</title>
<path fill="none" stroke="midnightblue" d="M664.363,-72.8685C693.52,-62.9461 742.115,-46.4085 779.15,-33.8051"/>
<polygon fill="midnightblue" stroke="midnightblue" points="780.44,-37.0632 788.779,-30.5281 778.185,-30.4364 780.44,-37.0632"/>
</g>
<!-- Node12 -->
<g id="node12" class="node"><title>Node12</title>
<polygon fill="white" stroke="#bfbfbf" points="902.5,-0.5 902.5,-30.5 1009.5,-30.5 1009.5,-0.5 902.5,-0.5"/>
<text text-anchor="start" x="910.5" y="-18.5" font-family="Helvetica,sans-Serif" font-size="10.00">dynamic&#45;graph/linear</text>
<text text-anchor="middle" x="956" y="-7.5" font-family="Helvetica,sans-Serif" font-size="10.00">&#45;algebra.h</text>
</g>
<!-- Node2&#45;&gt;Node12 -->
<g id="edge11" class="edge"><title>Node2&#45;&gt;Node12</title>
<path fill="none" stroke="midnightblue" d="M674.925,-72.9645C683.762,-70.9387 693.211,-68.8347 702,-67 783.918,-49.9006 807.367,-48.9394 892.431,-31.2794"/>
<polygon fill="midnightblue" stroke="midnightblue" points="893.193,-34.6958 902.264,-29.2212 891.759,-27.8443 893.193,-34.6958"/>
</g>
<!-- Node13 -->
<g id="node13" class="node"><title>Node13</title>
<polygon fill="white" stroke="#bfbfbf" points="1027.5,-6 1027.5,-25 1122.5,-25 1122.5,-6 1027.5,-6"/>
<text text-anchor="middle" x="1075" y="-13" font-family="Helvetica,sans-Serif" font-size="10.00">sot/core/debug.hh</text>
</g>
<!-- Node2&#45;&gt;Node13 -->
<g id="edge12" class="edge"><title>Node2&#45;&gt;Node13</title>
<path fill="none" stroke="midnightblue" d="M672.862,-72.9656C682.255,-70.8008 692.486,-68.6296 702,-67 841.759,-43.0598 879.579,-56.8348 1019,-31 1024.37,-30.005 1029.98,-28.7786 1035.5,-27.4639"/>
<polygon fill="midnightblue" stroke="midnightblue" points="1036.38,-30.8502 1045.24,-25.033 1034.69,-24.0585 1036.38,-30.8502"/>
</g>
<!-- Node14 -->
<g id="node14" class="node"><title>Node14</title>
<polygon fill="white" stroke="#bfbfbf" points="1141,-6 1141,-25 1229,-25 1229,-6 1141,-6"/>
<text text-anchor="middle" x="1185" y="-13" font-family="Helvetica,sans-Serif" font-size="10.00">Eigen/StdVector</text>
</g>
<!-- Node2&#45;&gt;Node14 -->
<g id="edge13" class="edge"><title>Node2&#45;&gt;Node14</title>
<path fill="none" stroke="midnightblue" d="M672.177,-72.9306C681.748,-70.713 692.242,-68.5235 702,-67 891.484,-37.4172 943.159,-64.4448 1132,-31 1137.09,-30.0977 1142.41,-28.927 1147.62,-27.642"/>
<polygon fill="midnightblue" stroke="midnightblue" points="1148.65,-30.9909 1157.44,-25.0707 1146.88,-24.2194 1148.65,-30.9909"/>
</g>
<!-- Node15 -->
<g id="node15" class="node"><title>Node15</title>
<polygon fill="white" stroke="#bfbfbf" points="1247.5,-6 1247.5,-25 1366.5,-25 1366.5,-6 1247.5,-6"/>
<text text-anchor="middle" x="1307" y="-13" font-family="Helvetica,sans-Serif" font-size="10.00">unsupported/Eigen/FFT</text>
</g>
<!-- Node2&#45;&gt;Node15 -->
<g id="edge14" class="edge"><title>Node2&#45;&gt;Node15</title>
<path fill="none" stroke="midnightblue" d="M671.51,-72.9781C681.254,-70.7063 692.007,-68.4759 702,-67 938.196,-32.1134 1001.48,-63.6307 1238,-31 1245.5,-29.9647 1253.41,-28.5827 1261.09,-27.082"/>
<polygon fill="midnightblue" stroke="midnightblue" points="1261.9,-30.489 1271,-25.0601 1260.5,-23.6303 1261.9,-30.489"/>
</g>
<!-- Node16 -->
<g id="node16" class="node"><title>Node16</title>
<polygon fill="white" stroke="#bfbfbf" points="1384.5,-6 1384.5,-25 1517.5,-25 1517.5,-6 1384.5,-6"/>
<text text-anchor="middle" x="1451" y="-13" font-family="Helvetica,sans-Serif" font-size="10.00">unsupported/Eigen/Splines</text>
</g>
<!-- Node2&#45;&gt;Node16 -->
<g id="edge15" class="edge"><title>Node2&#45;&gt;Node16</title>
<path fill="none" stroke="midnightblue" d="M671.173,-72.9675C681.002,-70.6666 691.886,-68.4231 702,-67 999.056,-25.2017 1078.25,-67.5576 1376,-31 1384.51,-29.9545 1393.52,-28.5116 1402.21,-26.9388"/>
<polygon fill="midnightblue" stroke="midnightblue" points="1403.06,-30.3413 1412.24,-25.0489 1401.76,-23.4625 1403.06,-30.3413"/>
</g>
<!-- Node17 -->
<g id="node17" class="node"><title>Node17</title>
<polygon fill="white" stroke="#bfbfbf" points="1536,-0.5 1536,-30.5 1664,-30.5 1664,-0.5 1536,-0.5"/>
<text text-anchor="start" x="1544" y="-18.5" font-family="Helvetica,sans-Serif" font-size="10.00">unsupported/Eigen/Matrix</text>
<text text-anchor="middle" x="1600" y="-7.5" font-family="Helvetica,sans-Serif" font-size="10.00">Functions</text>
</g>
<!-- Node2&#45;&gt;Node17 -->
<g id="edge16" class="edge"><title>Node2&#45;&gt;Node17</title>
<path fill="none" stroke="midnightblue" d="M670.841,-72.982C680.754,-70.6521 691.768,-68.3888 702,-67 1062.4,-18.0805 1160.84,-73.8537 1525.94,-30.984"/>
<polygon fill="midnightblue" stroke="midnightblue" points="1526.48,-34.4451 1535.99,-29.7869 1525.65,-27.4942 1526.48,-34.4451"/>
</g>
</g>
</svg>
