<?xml version="1.0" encoding="UTF-8" standalone="no"?>
<!DOCTYPE svg PUBLIC "-//W3C//DTD SVG 1.1//EN"
 "http://www.w3.org/Graphics/SVG/1.1/DTD/svg11.dtd">
<!-- Generated by graphviz version 2.38.0 (20140413.2041)
 -->
<!-- Title: seqplay.cc Pages: 1 -->
<svg width="1116pt" height="162pt"
 viewBox="0.00 0.00 1115.50 162.00" xmlns="http://www.w3.org/2000/svg" xmlns:xlink="http://www.w3.org/1999/xlink">
<g id="graph0" class="graph" transform="scale(1 1) rotate(0) translate(4 158)">
<title>seqplay.cc</title>
<polygon fill="white" stroke="none" points="-4,4 -4,-158 1111.5,-158 1111.5,4 -4,4"/>
<!-- Node1 -->
<g id="node1" class="node"><title>Node1</title>
<polygon fill="#bfbfbf" stroke="black" points="198,-134.5 198,-153.5 262,-153.5 262,-134.5 198,-134.5"/>
<text text-anchor="middle" x="230" y="-141.5" font-family="Helvetica,sans-Serif" font-size="10.00">seqplay.cc</text>
</g>
<!-- Node2 -->
<g id="node2" class="node"><title>Node2</title>
<polygon fill="white" stroke="#bfbfbf" points="0,-73 0,-92 44,-92 44,-73 0,-73"/>
<text text-anchor="middle" x="22" y="-80" font-family="Helvetica,sans-Serif" font-size="10.00">vector</text>
</g>
<!-- Node1&#45;&gt;Node2 -->
<g id="edge1" class="edge"><title>Node1&#45;&gt;Node2</title>
<path fill="none" stroke="midnightblue" d="M197.705,-136.523C162.018,-128.958 103.096,-115.25 54,-98 52.3384,-97.4162 50.6445,-96.7796 48.9468,-96.1096"/>
<polygon fill="midnightblue" stroke="midnightblue" points="49.9512,-92.7334 39.379,-92.041 47.2119,-99.1752 49.9512,-92.7334"/>
</g>
<!-- Node3 -->
<g id="node3" class="node"><title>Node3</title>
<polygon fill="white" stroke="#bfbfbf" points="62.5,-73 62.5,-92 121.5,-92 121.5,-73 62.5,-73"/>
<text text-anchor="middle" x="92" y="-80" font-family="Helvetica,sans-Serif" font-size="10.00">stdexcept</text>
</g>
<!-- Node1&#45;&gt;Node3 -->
<g id="edge2" class="edge"><title>Node1&#45;&gt;Node3</title>
<path fill="none" stroke="midnightblue" d="M210.228,-134.475C186.864,-124.401 147.786,-107.553 120.997,-96.0023"/>
<polygon fill="midnightblue" stroke="midnightblue" points="122.304,-92.7544 111.735,-92.0091 119.532,-99.1824 122.304,-92.7544"/>
</g>
<!-- Node4 -->
<g id="node4" class="node"><title>Node4</title>
<polygon fill="white" stroke="#bfbfbf" points="140,-73 140,-92 242,-92 242,-73 140,-73"/>
<text text-anchor="middle" x="191" y="-80" font-family="Helvetica,sans-Serif" font-size="10.00">boost/tokenizer.hpp</text>
</g>
<!-- Node1&#45;&gt;Node4 -->
<g id="edge3" class="edge"><title>Node1&#45;&gt;Node4</title>
<path fill="none" stroke="midnightblue" d="M224.412,-134.475C218.62,-125.638 209.411,-111.589 202.126,-100.475"/>
<polygon fill="midnightblue" stroke="midnightblue" points="204.987,-98.4539 196.577,-92.0091 199.132,-102.291 204.987,-98.4539"/>
</g>
<!-- Node5 -->
<g id="node5" class="node"><title>Node5</title>
<polygon fill="white" stroke="#bfbfbf" points="224,-6 224,-25 278,-25 278,-6 224,-6"/>
<text text-anchor="middle" x="251" y="-13" font-family="Helvetica,sans-Serif" font-size="10.00">iostream</text>
</g>
<!-- Node1&#45;&gt;Node5 -->
<g id="edge4" class="edge"><title>Node1&#45;&gt;Node5</title>
<path fill="none" stroke="midnightblue" d="M235.384,-134.443C240.556,-125.678 248.012,-111.467 251,-98 255.681,-76.8999 254.776,-51.9637 253.284,-35.2813"/>
<polygon fill="midnightblue" stroke="midnightblue" points="256.751,-34.7763 252.219,-25.1993 249.789,-35.5116 256.751,-34.7763"/>
</g>
<!-- Node6 -->
<g id="node6" class="node"><title>Node6</title>
<polygon fill="white" stroke="#bfbfbf" points="298,-67.5 298,-97.5 424,-97.5 424,-67.5 298,-67.5"/>
<text text-anchor="start" x="306" y="-85.5" font-family="Helvetica,sans-Serif" font-size="10.00">dynamic&#45;graph/command</text>
<text text-anchor="middle" x="361" y="-74.5" font-family="Helvetica,sans-Serif" font-size="10.00">&#45;bind.h</text>
</g>
<!-- Node1&#45;&gt;Node6 -->
<g id="edge5" class="edge"><title>Node1&#45;&gt;Node6</title>
<path fill="none" stroke="midnightblue" d="M248.769,-134.475C267.506,-125.965 296.889,-112.619 320.89,-101.718"/>
<polygon fill="midnightblue" stroke="midnightblue" points="322.468,-104.845 330.126,-97.523 319.574,-98.4717 322.468,-104.845"/>
</g>
<!-- Node7 -->
<g id="node7" class="node"><title>Node7</title>
<g id="a_node7"><a xlink:href="a00018.html" target="_top" xlink:title="seqplay.hh">
<polygon fill="white" stroke="black" points="460,-73 460,-92 524,-92 524,-73 460,-73"/>
<text text-anchor="middle" x="492" y="-80" font-family="Helvetica,sans-Serif" font-size="10.00">seqplay.hh</text>
</a>
</g>
</g>
<!-- Node1&#45;&gt;Node7 -->
<g id="edge6" class="edge"><title>Node1&#45;&gt;Node7</title>
<path fill="none" stroke="midnightblue" d="M262.046,-136.133C302.097,-127.496 372.715,-112.088 433,-98 438.457,-96.7249 444.189,-95.3546 449.848,-93.9834"/>
<polygon fill="midnightblue" stroke="midnightblue" points="450.995,-97.3064 459.88,-91.535 449.335,-90.506 450.995,-97.3064"/>
</g>
<!-- Node7&#45;&gt;Node5 -->
<g id="edge7" class="edge"><title>Node7&#45;&gt;Node5</title>
<path fill="none" stroke="midnightblue" d="M459.716,-73.5623C402.239,-59.4283 288.044,-31.3369 287,-31 284.864,-30.3105 282.674,-29.555 280.481,-28.7622"/>
<polygon fill="midnightblue" stroke="midnightblue" points="281.589,-25.4388 270.998,-25.1379 279.09,-31.9774 281.589,-25.4388"/>
</g>
<!-- Node8 -->
<g id="node8" class="node"><title>Node8</title>
<polygon fill="white" stroke="#bfbfbf" points="296,-6 296,-25 348,-25 348,-6 296,-6"/>
<text text-anchor="middle" x="322" y="-13" font-family="Helvetica,sans-Serif" font-size="10.00">sstream</text>
</g>
<!-- Node7&#45;&gt;Node8 -->
<g id="edge8" class="edge"><title>Node7&#45;&gt;Node8</title>
<path fill="none" stroke="midnightblue" d="M468.493,-72.988C441.483,-63.1428 395.88,-46.3203 357,-31 355.359,-30.3535 353.678,-29.6833 351.983,-29.0016"/>
<polygon fill="midnightblue" stroke="midnightblue" points="352.891,-25.5917 342.31,-25.0541 350.246,-32.0729 352.891,-25.5917"/>
</g>
<!-- Node9 -->
<g id="node9" class="node"><title>Node9</title>
<polygon fill="white" stroke="#bfbfbf" points="366,-6 366,-25 416,-25 416,-6 366,-6"/>
<text text-anchor="middle" x="391" y="-13" font-family="Helvetica,sans-Serif" font-size="10.00">fstream</text>
</g>
<!-- Node7&#45;&gt;Node9 -->
<g id="edge9" class="edge"><title>Node7&#45;&gt;Node9</title>
<path fill="none" stroke="midnightblue" d="M478.379,-72.7338C461.569,-61.9156 432.772,-43.3832 412.856,-30.5659"/>
<polygon fill="midnightblue" stroke="midnightblue" points="414.709,-27.5959 404.406,-25.1273 410.92,-33.4823 414.709,-27.5959"/>
</g>
<!-- Node10 -->
<g id="node10" class="node"><title>Node10</title>
<polygon fill="white" stroke="#bfbfbf" points="434,-6 434,-25 550,-25 550,-6 434,-6"/>
<text text-anchor="middle" x="492" y="-13" font-family="Helvetica,sans-Serif" font-size="10.00">dynamic&#45;graph/entity.h</text>
</g>
<!-- Node7&#45;&gt;Node10 -->
<g id="edge10" class="edge"><title>Node7&#45;&gt;Node10</title>
<path fill="none" stroke="midnightblue" d="M492,-72.7338C492,-63.1826 492,-47.6183 492,-35.2829"/>
<polygon fill="midnightblue" stroke="midnightblue" points="495.5,-35.1273 492,-25.1273 488.5,-35.1273 495.5,-35.1273"/>
</g>
<!-- Node11 -->
<g id="node11" class="node"><title>Node11</title>
<polygon fill="white" stroke="#bfbfbf" points="568,-6 568,-25 690,-25 690,-6 568,-6"/>
<text text-anchor="middle" x="629" y="-13" font-family="Helvetica,sans-Serif" font-size="10.00">dynamic&#45;graph/factory.h</text>
</g>
<!-- Node7&#45;&gt;Node11 -->
<g id="edge11" class="edge"><title>Node7&#45;&gt;Node11</title>
<path fill="none" stroke="midnightblue" d="M510.193,-72.8685C533.53,-61.7961 574.229,-42.4862 601.394,-29.5978"/>
<polygon fill="midnightblue" stroke="midnightblue" points="603.198,-32.6159 610.732,-25.1672 600.197,-26.2916 603.198,-32.6159"/>
</g>
<!-- Node12 -->
<g id="node12" class="node"><title>Node12</title>
<polygon fill="white" stroke="#bfbfbf" points="708.5,-0.5 708.5,-30.5 815.5,-30.5 815.5,-0.5 708.5,-0.5"/>
<text text-anchor="start" x="716.5" y="-18.5" font-family="Helvetica,sans-Serif" font-size="10.00">dynamic&#45;graph/linear</text>
<text text-anchor="middle" x="762" y="-7.5" font-family="Helvetica,sans-Serif" font-size="10.00">&#45;algebra.h</text>
</g>
<!-- Node7&#45;&gt;Node12 -->
<g id="edge12" class="edge"><title>Node7&#45;&gt;Node12</title>
<path fill="none" stroke="midnightblue" d="M524.033,-73.7884C566.837,-63.4837 643.643,-44.9933 698.42,-31.8064"/>
<polygon fill="midnightblue" stroke="midnightblue" points="699.475,-35.1524 708.378,-29.409 697.837,-28.3468 699.475,-35.1524"/>
</g>
<!-- Node13 -->
<g id="node13" class="node"><title>Node13</title>
<polygon fill="white" stroke="#bfbfbf" points="833.5,-6 833.5,-25 950.5,-25 950.5,-6 833.5,-6"/>
<text text-anchor="middle" x="892" y="-13" font-family="Helvetica,sans-Serif" font-size="10.00">dynamic&#45;graph/signal.h</text>
</g>
<!-- Node7&#45;&gt;Node13 -->
<g id="edge13" class="edge"><title>Node7&#45;&gt;Node13</title>
<path fill="none" stroke="midnightblue" d="M524.258,-77.292C583.854,-69.3662 715.157,-51.1945 825,-31 831.299,-29.842 837.91,-28.5301 844.424,-27.1802"/>
<polygon fill="midnightblue" stroke="midnightblue" points="845.462,-30.5382 854.521,-25.0443 844.013,-23.6897 845.462,-30.5382"/>
</g>
<!-- Node14 -->
<g id="node14" class="node"><title>Node14</title>
<polygon fill="white" stroke="#bfbfbf" points="968.5,-6 968.5,-25 1107.5,-25 1107.5,-6 968.5,-6"/>
<text text-anchor="middle" x="1038" y="-13" font-family="Helvetica,sans-Serif" font-size="10.00">sot/core/matrix&#45;geometry.hh</text>
</g>
<!-- Node7&#45;&gt;Node14 -->
<g id="edge14" class="edge"><title>Node7&#45;&gt;Node14</title>
<path fill="none" stroke="midnightblue" d="M524.166,-78.8813C600.197,-72.5059 796.872,-54.9281 960,-31 968.138,-29.8062 976.724,-28.3804 985.106,-26.8956"/>
<polygon fill="midnightblue" stroke="midnightblue" points="985.971,-30.296 995.185,-25.0671 984.721,-23.4085 985.971,-30.296"/>
</g>
</g>
</svg>
