<?xml version="1.0" encoding="UTF-8" standalone="no"?>
<!DOCTYPE svg PUBLIC "-//W3C//DTD SVG 1.1//EN"
 "http://www.w3.org/Graphics/SVG/1.1/DTD/svg11.dtd">
<!-- Generated by graphviz version 2.38.0 (20140413.2041)
 -->
<!-- Title: dynamicgraph::sot::tools::KinematicPlanner Pages: 1 -->
<svg width="405pt" height="150pt"
 viewBox="0.00 0.00 405.00 150.00" xmlns="http://www.w3.org/2000/svg" xmlns:xlink="http://www.w3.org/1999/xlink">
<g id="graph0" class="graph" transform="scale(1 1) rotate(0) translate(4 146)">
<title>dynamicgraph::sot::tools::KinematicPlanner</title>
<polygon fill="white" stroke="none" points="-4,4 -4,-146 401,-146 401,4 -4,4"/>
<!-- Node1 -->
<g id="node1" class="node"><title>Node1</title>
<polygon fill="#bfbfbf" stroke="black" points="277,-73 277,-103 397,-103 397,-73 277,-73"/>
<text text-anchor="start" x="285" y="-91" font-family="Helvetica,sans-Serif" font-size="10.00">dynamicgraph::sot::</text>
<text text-anchor="middle" x="337" y="-80" font-family="Helvetica,sans-Serif" font-size="10.00">tools::KinematicPlanner</text>
</g>
<!-- Node2 -->
<g id="node2" class="node"><title>Node2</title>
<polygon fill="white" stroke="#bfbfbf" points="58,-122.5 58,-141.5 100,-141.5 100,-122.5 58,-122.5"/>
<text text-anchor="middle" x="79" y="-129.5" font-family="Helvetica,sans-Serif" font-size="10.00">Entity</text>
</g>
<!-- Node2&#45;&gt;Node1 -->
<g id="edge1" class="edge"><title>Node2&#45;&gt;Node1</title>
<path fill="none" stroke="midnightblue" d="M110.385,-127.378C146.036,-121.886 206.899,-112.293 259,-103 264.765,-101.972 270.766,-100.866 276.761,-99.7369"/>
<polygon fill="midnightblue" stroke="midnightblue" points="109.522,-123.97 100.169,-128.946 110.584,-130.889 109.522,-123.97"/>
</g>
<!-- Node3 -->
<g id="node3" class="node"><title>Node3</title>
<polygon fill="white" stroke="#bfbfbf" points="19.5,-73 19.5,-103 138.5,-103 138.5,-73 19.5,-73"/>
<text text-anchor="start" x="27.5" y="-91" font-family="Helvetica,sans-Serif" font-size="10.00">std::list&lt; dynamicgraph</text>
<text text-anchor="middle" x="79" y="-80" font-family="Helvetica,sans-Serif" font-size="10.00">::SignalBase&lt; int &gt; * &gt;</text>
</g>
<!-- Node3&#45;&gt;Node1 -->
<g id="edge2" class="edge"><title>Node3&#45;&gt;Node1</title>
<path fill="none" stroke="#9a32cd" stroke-dasharray="5,2" d="M148.912,-88C188.805,-88 238.508,-88 276.655,-88"/>
<polygon fill="#9a32cd" stroke="#9a32cd" points="148.732,-84.5001 138.732,-88 148.732,-91.5001 148.732,-84.5001"/>
<text text-anchor="middle" x="217.5" y="-91" font-family="Helvetica,sans-Serif" font-size="10.00"> genericSignalRefs</text>
</g>
<!-- Node4 -->
<g id="node4" class="node"><title>Node4</title>
<polygon fill="white" stroke="#bfbfbf" points="0,-0.5 0,-41.5 158,-41.5 158,-0.5 0,-0.5"/>
<text text-anchor="start" x="8" y="-29.5" font-family="Helvetica,sans-Serif" font-size="10.00">std::vector&lt; Eigen</text>
<text text-anchor="start" x="8" y="-18.5" font-family="Helvetica,sans-Serif" font-size="10.00">::ArrayXXd, Eigen::aligned</text>
<text text-anchor="middle" x="79" y="-7.5" font-family="Helvetica,sans-Serif" font-size="10.00">_allocator&lt; Eigen::ArrayXXd &gt; &gt;</text>
</g>
<!-- Node4&#45;&gt;Node1 -->
<g id="edge3" class="edge"><title>Node4&#45;&gt;Node1</title>
<path fill="none" stroke="#9a32cd" stroke-dasharray="5,2" d="M168.564,-22.4942C197.96,-25.055 230.453,-30.1713 259,-40 280.597,-47.436 302.432,-61.8476 317.306,-72.9471"/>
<polygon fill="#9a32cd" stroke="#9a32cd" points="168.55,-18.9824 158.308,-21.6914 168.004,-25.9611 168.55,-18.9824"/>
<text text-anchor="middle" x="217.5" y="-76" font-family="Helvetica,sans-Serif" font-size="10.00"> pSourceDelayed1</text>
<text text-anchor="middle" x="217.5" y="-65" font-family="Helvetica,sans-Serif" font-size="10.00">pSourceDelayed2</text>
<text text-anchor="middle" x="217.5" y="-54" font-family="Helvetica,sans-Serif" font-size="10.00">wPeriodic1</text>
<text text-anchor="middle" x="217.5" y="-43" font-family="Helvetica,sans-Serif" font-size="10.00">wPeriodic2</text>
</g>
</g>
</svg>
