<?xml version="1.0" encoding="UTF-8" standalone="no"?>
<!DOCTYPE svg PUBLIC "-//W3C//DTD SVG 1.1//EN"
 "http://www.w3.org/Graphics/SVG/1.1/DTD/svg11.dtd">
<!-- Generated by graphviz version 2.38.0 (20140413.2041)
 -->
<!-- Title: seqplay.hh Pages: 1 -->
<svg width="892pt" height="95pt"
 viewBox="0.00 0.00 891.50 95.00" xmlns="http://www.w3.org/2000/svg" xmlns:xlink="http://www.w3.org/1999/xlink">
<g id="graph0" class="graph" transform="scale(1 1) rotate(0) translate(4 91)">
<title>seqplay.hh</title>
<polygon fill="white" stroke="none" points="-4,4 -4,-91 887.5,-91 887.5,4 -4,4"/>
<!-- Node1 -->
<g id="node1" class="node"><title>Node1</title>
<polygon fill="#bfbfbf" stroke="black" points="304,-67.5 304,-86.5 368,-86.5 368,-67.5 304,-67.5"/>
<text text-anchor="middle" x="336" y="-74.5" font-family="Helvetica,sans-Serif" font-size="10.00">seqplay.hh</text>
</g>
<!-- Node2 -->
<g id="node2" class="node"><title>Node2</title>
<polygon fill="white" stroke="#bfbfbf" points="0,-6 0,-25 54,-25 54,-6 0,-6"/>
<text text-anchor="middle" x="27" y="-13" font-family="Helvetica,sans-Serif" font-size="10.00">iostream</text>
</g>
<!-- Node1&#45;&gt;Node2 -->
<g id="edge1" class="edge"><title>Node1&#45;&gt;Node2</title>
<path fill="none" stroke="midnightblue" d="M303.979,-73.0246C252.47,-67.7277 148.34,-54.9066 63,-31 60.5588,-30.3161 58.0576,-29.5201 55.5667,-28.6596"/>
<polygon fill="midnightblue" stroke="midnightblue" points="56.7517,-25.366 46.1597,-25.1224 54.288,-31.9181 56.7517,-25.366"/>
</g>
<!-- Node3 -->
<g id="node3" class="node"><title>Node3</title>
<polygon fill="white" stroke="#bfbfbf" points="72,-6 72,-25 124,-25 124,-6 72,-6"/>
<text text-anchor="middle" x="98" y="-13" font-family="Helvetica,sans-Serif" font-size="10.00">sstream</text>
</g>
<!-- Node1&#45;&gt;Node3 -->
<g id="edge2" class="edge"><title>Node1&#45;&gt;Node3</title>
<path fill="none" stroke="midnightblue" d="M303.901,-70.6756C263.498,-63.5672 192.215,-49.672 133,-31 130.859,-30.325 128.668,-29.5724 126.476,-28.7747"/>
<polygon fill="midnightblue" stroke="midnightblue" points="127.621,-25.4643 117.032,-25.091 125.077,-31.9857 127.621,-25.4643"/>
</g>
<!-- Node4 -->
<g id="node4" class="node"><title>Node4</title>
<polygon fill="white" stroke="#bfbfbf" points="142,-6 142,-25 192,-25 192,-6 142,-6"/>
<text text-anchor="middle" x="167" y="-13" font-family="Helvetica,sans-Serif" font-size="10.00">fstream</text>
</g>
<!-- Node1&#45;&gt;Node4 -->
<g id="edge3" class="edge"><title>Node1&#45;&gt;Node4</title>
<path fill="none" stroke="midnightblue" d="M308.102,-67.4313C280.64,-58.8254 237.614,-44.8834 201,-31 199.35,-30.3743 197.662,-29.7157 195.963,-29.0385"/>
<polygon fill="midnightblue" stroke="midnightblue" points="196.887,-25.6334 186.308,-25.056 194.218,-32.1046 196.887,-25.6334"/>
</g>
<!-- Node5 -->
<g id="node5" class="node"><title>Node5</title>
<polygon fill="white" stroke="#bfbfbf" points="210,-6 210,-25 326,-25 326,-6 210,-6"/>
<text text-anchor="middle" x="268" y="-13" font-family="Helvetica,sans-Serif" font-size="10.00">dynamic&#45;graph/entity.h</text>
</g>
<!-- Node1&#45;&gt;Node5 -->
<g id="edge4" class="edge"><title>Node1&#45;&gt;Node5</title>
<path fill="none" stroke="midnightblue" d="M326.257,-67.4751C315.653,-58.1966 298.481,-43.1706 285.521,-31.831"/>
<polygon fill="midnightblue" stroke="midnightblue" points="287.555,-28.9601 277.725,-25.0091 282.946,-34.2282 287.555,-28.9601"/>
</g>
<!-- Node6 -->
<g id="node6" class="node"><title>Node6</title>
<polygon fill="white" stroke="#bfbfbf" points="344,-6 344,-25 466,-25 466,-6 344,-6"/>
<text text-anchor="middle" x="405" y="-13" font-family="Helvetica,sans-Serif" font-size="10.00">dynamic&#45;graph/factory.h</text>
</g>
<!-- Node1&#45;&gt;Node6 -->
<g id="edge5" class="edge"><title>Node1&#45;&gt;Node6</title>
<path fill="none" stroke="midnightblue" d="M345.886,-67.4751C356.646,-58.1966 374.071,-43.1706 387.221,-31.831"/>
<polygon fill="midnightblue" stroke="midnightblue" points="389.845,-34.1902 395.132,-25.0091 385.273,-28.889 389.845,-34.1902"/>
</g>
<!-- Node7 -->
<g id="node7" class="node"><title>Node7</title>
<polygon fill="white" stroke="#bfbfbf" points="484.5,-0.5 484.5,-30.5 591.5,-30.5 591.5,-0.5 484.5,-0.5"/>
<text text-anchor="start" x="492.5" y="-18.5" font-family="Helvetica,sans-Serif" font-size="10.00">dynamic&#45;graph/linear</text>
<text text-anchor="middle" x="538" y="-7.5" font-family="Helvetica,sans-Serif" font-size="10.00">&#45;algebra.h</text>
</g>
<!-- Node1&#45;&gt;Node7 -->
<g id="edge6" class="edge"><title>Node1&#45;&gt;Node7</title>
<path fill="none" stroke="midnightblue" d="M364.942,-67.4751C394.984,-58.6259 442.776,-44.5487 480.531,-33.4277"/>
<polygon fill="midnightblue" stroke="midnightblue" points="481.789,-36.7059 490.393,-30.523 479.811,-29.9912 481.789,-36.7059"/>
</g>
<!-- Node8 -->
<g id="node8" class="node"><title>Node8</title>
<polygon fill="white" stroke="#bfbfbf" points="609.5,-6 609.5,-25 726.5,-25 726.5,-6 609.5,-6"/>
<text text-anchor="middle" x="668" y="-13" font-family="Helvetica,sans-Serif" font-size="10.00">dynamic&#45;graph/signal.h</text>
</g>
<!-- Node1&#45;&gt;Node8 -->
<g id="edge7" class="edge"><title>Node1&#45;&gt;Node8</title>
<path fill="none" stroke="midnightblue" d="M368.311,-70.9931C418.307,-63.1375 517.379,-47.14 601,-31 607.212,-29.8011 613.732,-28.4749 620.166,-27.126"/>
<polygon fill="midnightblue" stroke="midnightblue" points="621.095,-30.5068 630.147,-25.0025 619.638,-23.66 621.095,-30.5068"/>
</g>
<!-- Node9 -->
<g id="node9" class="node"><title>Node9</title>
<polygon fill="white" stroke="#bfbfbf" points="744.5,-6 744.5,-25 883.5,-25 883.5,-6 744.5,-6"/>
<text text-anchor="middle" x="814" y="-13" font-family="Helvetica,sans-Serif" font-size="10.00">sot/core/matrix&#45;geometry.hh</text>
</g>
<!-- Node1&#45;&gt;Node9 -->
<g id="edge8" class="edge"><title>Node1&#45;&gt;Node9</title>
<path fill="none" stroke="midnightblue" d="M368.248,-73.1641C436.365,-67 599.835,-51.289 736,-31 744.136,-29.7878 752.72,-28.352 761.101,-26.8631"/>
<polygon fill="midnightblue" stroke="midnightblue" points="761.967,-30.2632 771.18,-25.0319 760.715,-23.376 761.967,-30.2632"/>
</g>
</g>
</svg>
