<?xml version="1.0" encoding="UTF-8" standalone="no"?>
<!DOCTYPE svg PUBLIC "-//W3C//DTD SVG 1.1//EN"
 "http://www.w3.org/Graphics/SVG/1.1/DTD/svg11.dtd">
<!-- Generated by graphviz version 2.38.0 (20140413.2041)
 -->
<!-- Title: Graphical Class Hierarchy Pages: 1 -->
<svg width="227pt" height="284pt"
 viewBox="0.00 0.00 227.00 284.00" xmlns="http://www.w3.org/2000/svg" xmlns:xlink="http://www.w3.org/1999/xlink">
<g id="graph0" class="graph" transform="scale(1 1) rotate(0) translate(4 280)">
<title>Graphical Class Hierarchy</title>
<polygon fill="white" stroke="none" points="-4,4 -4,-280 223,-280 223,4 -4,4"/>
<!-- Node1 -->
<g id="node1" class="node"><title>Node1</title>
<polygon fill="white" stroke="#bfbfbf" points="0,-128 0,-147 42,-147 42,-128 0,-128"/>
<text text-anchor="middle" x="21" y="-135" font-family="Helvetica,sans-Serif" font-size="10.00">Entity</text>
</g>
<!-- Node2 -->
<g id="node2" class="node"><title>Node2</title>
<g id="a_node2"><a xlink:href="a00001.html" target="_top" xlink:title="dynamicgraph::sot::\ltools::CubicInterpolation">
<polygon fill="white" stroke="black" points="87.5,-245.5 87.5,-275.5 209.5,-275.5 209.5,-245.5 87.5,-245.5"/>
<text text-anchor="start" x="95.5" y="-263.5" font-family="Helvetica,sans-Serif" font-size="10.00">dynamicgraph::sot::</text>
<text text-anchor="middle" x="148.5" y="-252.5" font-family="Helvetica,sans-Serif" font-size="10.00">tools::CubicInterpolation</text>
</a>
</g>
</g>
<!-- Node1&#45;&gt;Node2 -->
<g id="edge1" class="edge"><title>Node1&#45;&gt;Node2</title>
<path fill="none" stroke="midnightblue" d="M28.2012,-156.854C36.2706,-179.084 52.4381,-215.219 78,-236.5 82.1204,-239.93 86.7594,-242.881 91.6361,-245.417"/>
<polygon fill="midnightblue" stroke="midnightblue" points="31.4398,-155.508 24.8848,-147.185 24.8184,-157.779 31.4398,-155.508"/>
</g>
<!-- Node3 -->
<g id="node3" class="node"><title>Node3</title>
<g id="a_node3"><a xlink:href="a00002.html" target="_top" xlink:title="dynamicgraph::sot::\ltools::CubicInterpolationSE3">
<polygon fill="white" stroke="black" points="78,-196.5 78,-226.5 219,-226.5 219,-196.5 78,-196.5"/>
<text text-anchor="start" x="86" y="-214.5" font-family="Helvetica,sans-Serif" font-size="10.00">dynamicgraph::sot::</text>
<text text-anchor="middle" x="148.5" y="-203.5" font-family="Helvetica,sans-Serif" font-size="10.00">tools::CubicInterpolationSE3</text>
</a>
</g>
</g>
<!-- Node1&#45;&gt;Node3 -->
<g id="edge2" class="edge"><title>Node1&#45;&gt;Node3</title>
<path fill="none" stroke="midnightblue" d="M37.7993,-154.751C48.3272,-165.4 62.9511,-178.669 78,-187.5 83.7249,-190.86 89.9917,-193.845 96.3439,-196.468"/>
<polygon fill="midnightblue" stroke="midnightblue" points="40.0498,-152.04 30.6077,-147.234 34.9919,-156.879 40.0498,-152.04"/>
</g>
<!-- Node4 -->
<g id="node4" class="node"><title>Node4</title>
<g id="a_node4"><a xlink:href="a00003.html" target="_top" xlink:title="dynamicgraph::sot::\ltools::KinematicPlanner">
<polygon fill="white" stroke="black" points="88.5,-147.5 88.5,-177.5 208.5,-177.5 208.5,-147.5 88.5,-147.5"/>
<text text-anchor="start" x="96.5" y="-165.5" font-family="Helvetica,sans-Serif" font-size="10.00">dynamicgraph::sot::</text>
<text text-anchor="middle" x="148.5" y="-154.5" font-family="Helvetica,sans-Serif" font-size="10.00">tools::KinematicPlanner</text>
</a>
</g>
</g>
<!-- Node1&#45;&gt;Node4 -->
<g id="edge3" class="edge"><title>Node1&#45;&gt;Node4</title>
<path fill="none" stroke="midnightblue" d="M52.0241,-143.481C62.9673,-145.661 75.7543,-148.208 88.3474,-150.717"/>
<polygon fill="midnightblue" stroke="midnightblue" points="52.6549,-140.038 42.1637,-141.517 51.2873,-146.903 52.6549,-140.038"/>
</g>
<!-- Node5 -->
<g id="node5" class="node"><title>Node5</title>
<g id="a_node5"><a xlink:href="a00004.html" target="_top" xlink:title="dynamicgraph::sot::\ltools::Oscillator">
<polygon fill="white" stroke="black" points="97,-98.5 97,-128.5 200,-128.5 200,-98.5 97,-98.5"/>
<text text-anchor="start" x="105" y="-116.5" font-family="Helvetica,sans-Serif" font-size="10.00">dynamicgraph::sot::</text>
<text text-anchor="middle" x="148.5" y="-105.5" font-family="Helvetica,sans-Serif" font-size="10.00">tools::Oscillator</text>
</a>
</g>
</g>
<!-- Node1&#45;&gt;Node5 -->
<g id="edge4" class="edge"><title>Node1&#45;&gt;Node5</title>
<path fill="none" stroke="midnightblue" d="M52.227,-131.72C65.5899,-129.164 81.6722,-126.089 96.7864,-123.198"/>
<polygon fill="midnightblue" stroke="midnightblue" points="51.3283,-128.328 42.1637,-133.644 52.6432,-135.203 51.3283,-128.328"/>
</g>
<!-- Node6 -->
<g id="node6" class="node"><title>Node6</title>
<g id="a_node6"><a xlink:href="a00005.html" target="_top" xlink:title="dynamicgraph::sot::\ltools::Playback">
<polygon fill="white" stroke="black" points="97,-49.5 97,-79.5 200,-79.5 200,-49.5 97,-49.5"/>
<text text-anchor="start" x="105" y="-67.5" font-family="Helvetica,sans-Serif" font-size="10.00">dynamicgraph::sot::</text>
<text text-anchor="middle" x="148.5" y="-56.5" font-family="Helvetica,sans-Serif" font-size="10.00">tools::Playback</text>
</a>
</g>
</g>
<!-- Node1&#45;&gt;Node6 -->
<g id="edge5" class="edge"><title>Node1&#45;&gt;Node6</title>
<path fill="none" stroke="midnightblue" d="M38.3375,-120.672C48.8969,-110.55 63.3594,-98.0186 78,-89.5 84.4283,-85.7597 91.5113,-82.431 98.6223,-79.5193"/>
<polygon fill="midnightblue" stroke="midnightblue" points="35.7392,-118.319 31.0852,-127.837 40.6589,-123.299 35.7392,-118.319"/>
</g>
<!-- Node7 -->
<g id="node7" class="node"><title>Node7</title>
<g id="a_node7"><a xlink:href="a00006.html" target="_top" xlink:title="dynamicgraph::sot::\ltools::Seqplay">
<polygon fill="white" stroke="black" points="97,-0.5 97,-30.5 200,-30.5 200,-0.5 97,-0.5"/>
<text text-anchor="start" x="105" y="-18.5" font-family="Helvetica,sans-Serif" font-size="10.00">dynamicgraph::sot::</text>
<text text-anchor="middle" x="148.5" y="-7.5" font-family="Helvetica,sans-Serif" font-size="10.00">tools::Seqplay</text>
</a>
</g>
</g>
<!-- Node1&#45;&gt;Node7 -->
<g id="edge6" class="edge"><title>Node1&#45;&gt;Node7</title>
<path fill="none" stroke="midnightblue" d="M28.4793,-118.257C36.7329,-96.5019 52.9986,-61.3991 78,-40.5 83.6078,-35.8123 90.1639,-31.9727 96.968,-28.836"/>
<polygon fill="midnightblue" stroke="midnightblue" points="25.1581,-117.15 25.068,-127.745 31.7453,-119.519 25.1581,-117.15"/>
</g>
</g>
</svg>
